<?xml version="1.0" encoding="utf-8"?>
<!-- Generator: Adobe Illustrator 22.0.1, SVG Export Plug-In . SVG Version: 6.00 Build 0)  -->
<svg version="1.1" id="Calque_1" xmlns="http://www.w3.org/2000/svg" xmlns:xlink="http://www.w3.org/1999/xlink" x="0px" y="0px"
	 viewBox="0 0 100 100" style="enable-background:new 0 0 100 100;" xml:space="preserve">
<style type="text/css">
	.st0{fill:#ED1B24;}
</style>
<g>
	<g>
		<path class="st0" d="M0.2,49.8c0-13.8,0-27.7,0-41.5c0-1.4,0.1-1.5,1.5-1.5c11.5,0,23,0,34.4,0c1.5,0,1.6,0.2,1,1.6
			c-1.6,3.7-3.1,7.3-4.7,11s-3.2,7.4-4.7,11.1c-1.7,4.1-3.5,8.1-5.2,12.1c-1.5,3.5-3.1,7-4.6,10.5c-1.7,4-3.3,8-5.1,12
			c-1.6,3.8-3.2,7.5-4.8,11.2c-1.5,3.5-2.8,6.9-4.3,10.4c-0.7,1.7-1.6,3.3-2.1,5.2c-0.1,0.5-0.5,0.6-1,0.6c-0.5-0.1-0.6-0.4-0.7-0.9
			c0-0.4,0-0.6,0-1C0.2,77,0.2,63.3,0.2,49.8L0.2,49.8z"/>
		<path class="st0" d="M100,49.4c0,13.5,0,27,0,40.5c0,0.7,0,1.4-0.1,2c0,0.2-0.1,0.6-0.4,0.6c-0.4,0.1-0.5-0.1-0.7-0.4
			c-0.6-0.6-0.7-1.6-1-2.3c-1.2-3.1-2.6-6-3.8-9c-1.5-3.6-3-7.2-4.4-10.7c-1.5-3.5-3-6.8-4.4-10.2c-1.9-4.3-3.6-8.8-5.4-13.1
			c-1.6-3.8-3.2-7.7-4.9-11.5c-1.7-4.1-3.5-8.1-5.2-12.1c-1.7-4.1-3.5-8-5.2-12.1c-0.5-1.1-0.9-2.2-1.4-3.2c-0.2-0.6,0-1,0.6-1
			c0.2,0,0.5,0,0.7,0c11.4,0,22.7,0,34.1,0c1.5,0,1.5,0,1.5,1.5C100,22,100,35.7,100,49.4z"/>
		<path class="st0" d="M42.3,75.8c-2.3,0-4.7,0-7.2,0c-1.2,0-1.4-0.4-0.7-1.4c0.9-1.7,1.5-3.6,2.3-5.3c1.5-3.5,3-6.8,4.4-10.2
			c1.2-3,2.5-5.8,3.7-8.8c1.1-2.7,2.3-5.4,3.5-8.1c0.4-0.7,0.6-1.6,1-2.3c0.1-0.4,0.2-0.7,0.7-0.7c0.5,0,0.7,0.4,0.9,0.7
			c0.7,1.7,1.5,3.5,2.1,5.1c1.5,3.5,3,6.9,4.3,10.2c2,4.6,3.8,9,5.8,13.6c1.2,2.8,2.5,5.7,3.7,8.5c1.2,2.8,2.5,5.7,3.6,8.6
			c0.9,2,1.7,4.1,2.6,6c0.5,1.1,0.2,1.5-1,1.5c-4.3,0-8.6,0-13.1,0c-1,0-1.5-0.4-1.9-1.4c-1.2-3.1-2.5-6-3.7-9.1
			c-0.7-1.9-1.5-3.6-2.2-5.4c-0.5-1.2-0.7-1.5-2.1-1.5C47,75.8,44.7,75.8,42.3,75.8z"/>
	</g>
</g>
</svg>
