<?xml version="1.0" encoding="utf-8"?>
<!-- Generator: Adobe Illustrator 22.0.1, SVG Export Plug-In . SVG Version: 6.00 Build 0)  -->
<svg version="1.1" id="Calque_1" xmlns="http://www.w3.org/2000/svg" xmlns:xlink="http://www.w3.org/1999/xlink" x="0px" y="0px"
	 viewBox="0 0 100 100" style="enable-background:new 0 0 100 100;" xml:space="preserve">
<style type="text/css">
	.st0{fill:#FFFFFF;}
</style>
<circle class="st0" cx="50" cy="54.9" r="15.9"/>
<path class="st0" d="M35,4.9l-9.1,10H10C4.5,15,0,19.5,0,25v60c0,5.5,4.5,10,10,10h80c5.5,0,10-4.5,10-10V25c0-5.5-4.5-10-10-10
	H74.2L65,4.9H35z M50,79.9c-13.8,0-24.9-11.2-24.9-24.9S36.2,30,50,30s24.9,11.2,24.9,24.9S63.8,79.9,50,79.9z"/>
</svg>
