<?xml version="1.0" encoding="utf-8"?>
<!-- Generator: Adobe Illustrator 22.0.1, SVG Export Plug-In . SVG Version: 6.00 Build 0)  -->
<svg version="1.1" id="Calque_1" xmlns="http://www.w3.org/2000/svg" xmlns:xlink="http://www.w3.org/1999/xlink" x="0px" y="0px"
	 viewBox="0 0 100 100" style="enable-background:new 0 0 100 100;" xml:space="preserve">
<style type="text/css">
	.st0{fill:#EF5033;}
</style>
<g>
	<path class="st0" d="M51.4,100c-0.9,0-1.7,0-2.6,0c-1.9-0.1-3.2-1.1-4.6-2.4C30.3,84,16.6,70,2.7,56.3c-1.4-1.4-2.5-2.8-2.7-4.9
		c0-1,0-2.1,0-3.1c0.1-1.8,1.2-3.1,2.4-4.3c9.2-9.1,18.3-18.2,27.4-27.3c0.1-0.1,0.3-0.3,0.4-0.4c1.6-1.6,1.8-1.6,3.3,0
		c3,3,6.1,6.1,9.1,9.1c0.8,0.8,1.1,1.6,0.8,2.7c-0.8,3.3,0.4,5.9,3.1,7.7c1,0.7,1.4,1.5,1.4,2.7c0,8.2,0,16.3,0,24.5
		c0,1.2-0.4,2-1.4,2.6c-2.7,1.6-3.9,4.8-3,8c0.8,2.9,3.5,4.8,6.6,4.8c3.2,0,5.7-1.7,6.7-4.7c1-3-0.1-6.2-2.7-8
		C53.3,65,53,64.3,53,63.4c0-8.2,0-16.3,0-24.5c0-0.2,0-0.5,0-0.7c0.2-1,0.7-1.2,1.5-0.6c0.2,0.1,0.4,0.3,0.5,0.5
		c2.8,2.8,5.7,5.7,8.5,8.5c0.7,0.7,1,1.4,0.7,2.4c-0.8,2.7,0.1,5,2.1,6.8c2.1,1.9,4.7,2.4,7.4,1.3c2.5-1.1,4-3,4.2-5.7
		c0.4-4.8-3.5-8.4-8.2-7.5c-1.1,0.2-1.9-0.1-2.6-0.8c-3.1-3.1-6.2-6.2-9.3-9.3c-0.7-0.7-1.1-1.5-0.8-2.5c0.9-4-2.4-9-7.8-8.2
		c-1.4,0.2-2.4-0.2-3.4-1.2c-2.8-2.9-5.7-5.7-8.6-8.6c-1.8-1.8-1.8-2.1,0-3.8c2.2-2.2,4.5-4.4,6.7-6.8c1.2-1.3,2.5-2.3,4.3-2.4
		c1,0,2.1,0,3.1,0c2,0.2,3.4,1.3,4.8,2.6C69.9,16.3,83.6,30,97.3,43.7c1.4,1.4,2.7,2.9,2.7,5.1c0,0.9,0,1.7,0,2.6
		c-0.1,2-1.3,3.4-2.6,4.8C83.6,69.9,69.9,83.6,56.2,97.4C54.9,98.7,53.5,99.9,51.4,100z"/>
</g>
</svg>
