<?xml version="1.0" encoding="utf-8"?>
<!-- Generator: Adobe Illustrator 22.0.1, SVG Export Plug-In . SVG Version: 6.00 Build 0)  -->
<svg version="1.1" id="Calque_1" xmlns="http://www.w3.org/2000/svg" xmlns:xlink="http://www.w3.org/1999/xlink" x="0px" y="0px"
	 viewBox="0 0 100 100" style="enable-background:new 0 0 100 100;" xml:space="preserve">
<style type="text/css">
	.st0{fill:#C8733B;}
</style>
<g>
	<path class="st0" d="M0,49.2c0.4-0.9,1-1.5,1.7-2.3C7.6,41,13.6,35.1,19.5,29.1c0.9-0.9,1.9-1.3,3.2-1c1.2,0.2,2,1.2,2.3,2.4
		c0.3,1.3-0.2,2.3-1.1,3.1C18.8,38.8,13.6,44,8.4,49.1c-0.6,0.6-0.6,1,0,1.5C13.5,55.8,18.8,61,24,66.1c0.9,0.9,1.4,1.9,1.1,3.1
		c-0.5,2.5-3.4,3.2-5.4,1.4c-2.7-2.7-5.5-5.5-8.2-8.2C8.3,59.2,5,56,1.7,52.8c-0.6-0.6-1.3-1.4-1.7-2.3V49.2z"/>
	<path class="st0" d="M100,50.8c-0.4,0.9-1,1.5-1.7,2.3C92.4,59,86.4,64.9,80.5,70.9c-1.8,1.8-4.7,1.2-5.4-1.3
		c-0.3-1.3,0.1-2.4,1.1-3.2c5.2-5.2,10.4-10.4,15.6-15.6c0.5-0.5,0.5-0.9,0-1.4C86.5,44.2,81.4,39,76.2,33.8
		c-1.5-1.5-1.6-3.3-0.2-4.6c1.3-1.3,3.2-1.3,4.6,0.2c6.1,6.1,12.1,12.1,18.3,18.2c0.4,0.5,0.9,1.1,1.2,1.7L100,50.8z"/>
	<path class="st0" d="M31.3,84.3c0.1-0.6,0.2-1.2,0.5-1.8c10.2-22.6,20.4-45,30.7-67.6c1-2,2-2.8,3.7-2.5c1.6,0.2,2.8,1.7,2.6,3.4
		c0,0.1-0.1,0.3-0.1,0.4c-0.5,1.7-1.4,3.2-2,4.8c-9.7,21.2-19.3,42.4-29,63.7c-0.2,0.5-0.5,1.1-0.9,1.6c-0.8,1.1-2.1,1.5-3.4,1.1
		C32,87,31.1,85.8,31.3,84.3z"/>
</g>
</svg>
