<?xml version="1.0" encoding="utf-8"?>
<!-- Generator: Adobe Illustrator 22.0.1, SVG Export Plug-In . SVG Version: 6.00 Build 0)  -->
<svg version="1.1" id="Calque_1" xmlns="http://www.w3.org/2000/svg" xmlns:xlink="http://www.w3.org/1999/xlink" x="0px" y="0px"
	 viewBox="0 0 100 100" style="enable-background:new 0 0 100 100;" xml:space="preserve">
<style type="text/css">
	.st0{fill:#0968AC;}
</style>
<g>
	<g>
		<path class="st0" d="M97.2,72.9c-1.4,1.2-2.4,2.1-3.6,3c-1.2,0.9-2.4,1.8-3.7,2.6c-11.9,7.1-24.8,8.3-38,5.1
			c-11.6-2.9-21.2-9.4-29.4-17.9C12.5,55.2,8.3,42.6,9.5,28.2c0.3-3.6,0.9-7.1,1.3-10.7c0,0-0.2,0-0.2,0c-0.2,0.2-0.4,0.4-0.7,0.7
			c-3,3.3-5.4,7-7.1,11.2C-0.9,38.9-0.9,48.6,2.5,58c7.7,21.8,22.8,35.2,46,38.6c13.6,2,26.1-0.8,37.1-9.5
			C90.4,83.4,94.3,78.8,97.2,72.9z M36.9,8.3C36.3,9,36,9.4,35.7,9.8c-7.5,9.8-7.9,20.6-3.3,31.4C38.9,56.4,55.6,68.5,75.7,65
			c7.9-1.4,15-4.6,20.2-11c1.6-2,2.8-4.2,4.2-6.4c-0.1-0.1-0.3-0.2-0.4-0.3c-0.2,0.2-0.4,0.3-0.6,0.5c-7.7,7.5-16.9,10.3-27.5,9
			c-8-1-14.9-4.7-21.2-9.4C43.2,42,38.4,35,36.6,26C35.4,20.2,35.8,14.5,36.9,8.3z M95.1,30.3c-9.4,4.3-18.1,2.8-26.3-3.1
			c-8.2-6-11.8-13.9-10.2-24.5c-3.7,5.3-5.1,10.6-3.4,16.4C59,32,70.7,39.4,84.1,37.5C88.8,36.8,92.5,34.4,95.1,30.3z"/>
		<path class="st0" d="M97.2,72.9c-3,5.9-6.8,10.5-11.7,14.3c-11,8.6-23.5,11.5-37.1,9.5C25.3,93.2,10.2,79.8,2.5,58
			c-3.3-9.4-3.4-19.1,0.3-28.6c1.6-4.2,4-7.9,7.1-11.2c0.2-0.2,0.4-0.4,0.7-0.7c0.1-0.1,0.2,0,0.2,0c-0.4,3.5-1,7.1-1.3,10.7
			c-1.1,14.4,3.1,27,13.1,37.4c8.2,8.5,17.8,15.1,29.4,17.9c13.3,3.3,26.1,2,38-5.1c1.3-0.8,2.5-1.7,3.7-2.6
			C94.8,75,95.8,74.1,97.2,72.9z"/>
		<path class="st0" d="M36.9,8.3c-1.2,6.2-1.5,11.9-0.4,17.7c1.8,9,6.6,16,13.8,21.5c6.3,4.8,13.2,8.4,21.2,9.4
			c10.6,1.3,19.8-1.5,27.5-9c0.2-0.2,0.4-0.3,0.6-0.5c0.1,0.1,0.3,0.2,0.4,0.3c-1.4,2.1-2.6,4.4-4.2,6.4c-5.2,6.4-12.2,9.6-20.2,11
			c-20.1,3.5-36.8-8.6-43.2-23.7c-4.6-10.9-4.2-21.6,3.3-31.4C36,9.4,36.3,9,36.9,8.3z"/>
		<path class="st0" d="M95.1,30.3c-2.6,4-6.4,6.4-11.1,7.1c-13.4,2-25-5.4-28.8-18.3C53.5,13.3,54.9,8,58.6,2.8
			c-1.6,10.6,2,18.5,10.2,24.5C77,33.2,85.7,34.6,95.1,30.3z"/>
	</g>
</g>
</svg>
