<?xml version="1.0" encoding="utf-8"?>
<!-- Generator: Adobe Illustrator 22.0.1, SVG Export Plug-In . SVG Version: 6.00 Build 0)  -->
<svg version="1.1" id="Calque_1" xmlns="http://www.w3.org/2000/svg" xmlns:xlink="http://www.w3.org/1999/xlink" x="0px" y="0px"
	 viewBox="0 0 100 100" style="enable-background:new 0 0 100 100;" xml:space="preserve">
<style type="text/css">
	.st0{fill:#EDE551;}
</style>
<g>
	<path class="st0" d="M72.9,87.9c-5.5-0.2-11.4-1-17-3.8c-2.3-1.2-3.2-2.9-2.4-5.3c0.1-0.3,0.2-0.7,0.2-1c2.1-7.7,2.3-7.8,9.8-4.9
		c4.7,1.9,9.6,2.9,14.6,1.6c3.6-0.9,6.4-2.9,7-6.8c0.7-4.1-0.8-7.4-4.4-9.3c-2.7-1.5-5.6-2.7-8.6-4.1c-2.6-1.2-5.4-2.3-7.8-4
		c-7.4-4.9-11.1-11.5-9.7-20.5c1.3-8.6,6.8-14,14.7-16.6c8.1-2.6,16.3-2.1,24.2,1c3.5,1.3,4.1,2.7,3,6.3c-0.1,0.3-0.2,0.7-0.3,0.9
		c-2.3,6.8-2.3,6.8-9,4.6c-4.1-1.3-8.2-2.1-12.4-0.9c-2.9,0.9-5.1,2.5-5.6,5.7c-0.5,3.2,0.7,5.7,3.3,7.6s5.6,3,8.5,4.2
		c3.1,1.3,6.2,2.6,9,4.5c7.7,5.2,11.1,12.4,9.8,21.4c-1.3,9-6.9,14.7-15.4,17.6C80.9,87.5,77.2,87.8,72.9,87.9z"/>
	<path class="st0" d="M36,43.1c-0.2,6.8,0.3,15-0.4,23C34.1,83.4,19.2,92.7,2.7,86.5c-2.1-0.8-3-2.1-2.6-4.2
		c0.1-0.5,0.1-1.1,0.2-1.6c1.1-6.9,1.1-7,8.2-6.2c8.8,1,12.4-1.9,12.5-10.9c0.2-14.6,0.1-29.3,0.1-43.9c0-6.7,0.4-7,6.9-7.1
		c7.6,0,7.8,0.2,7.8,7.9C36,27.7,36,34.7,36,43.1z"/>
</g>
</svg>
