<?xml version="1.0" encoding="utf-8"?>
<!-- Generator: Adobe Illustrator 22.0.1, SVG Export Plug-In . SVG Version: 6.00 Build 0)  -->
<svg version="1.1" id="Calque_1" xmlns="http://www.w3.org/2000/svg" xmlns:xlink="http://www.w3.org/1999/xlink" x="0px" y="0px"
	 viewBox="0 0 100 100" style="enable-background:new 0 0 100 100;" xml:space="preserve">
<style type="text/css">
	.st0{fill:#A074C4;}
	.st1{fill:#FFFFFF;}
</style>
<g>
	<path class="st0" d="M25,40c0.5,2.9,1.2,5.8,3,8.2c1,1.4,2.4,1.9,4.2,1.9c7.3,0.2,12.7-2.9,16.1-9.3c3.2-5.9,3.2-12.2,1.7-18.6
		c-0.8-3.3-0.7-3.5,2.6-4.2c7.3-1.4,14.6-1.5,21.8,0.6c10.6,3,18,9.7,22.5,19.6c1.3,2.7,2.4,5.5,2.7,8.5c0.1,0.8,0.5,1.9-0.4,2.3
		c-0.8,0.4-1.3-0.7-1.9-1.1c-1-0.8-1.6-1.8-2.4-2.8c-0.2-0.3-0.4-0.7-0.8-0.6c-0.5,0.1-0.5,0.6-0.6,0.9c-1.2,4.4-2.6,8.8-5.9,12.1
		c-3.2,3.2-2.7,7-2.4,10.8c0.3,3.9,0.9,7.6,1.3,11.5c0.3,2.3-0.5,3.6-2.6,4.5c-2.3,0.9-4.7,1.3-7.2,1.2c-1.5,0-2.9-0.1-4.5,0
		c-0.9,0-1.2-0.3-1.2-1.2c0-0.8-0.1-1.6-0.2-2.4c0-1.3-0.6-2.4-1.7-3.2c-0.5-0.3-0.5-0.7-0.4-1.2c0.4-1.8,0.9-3.7,1.2-5.5
		c0.4-1.9,0.1-3.8-1.4-5.2c-1.1-1.1-2.2-1.3-3.7-0.6c-3.9,2-7.9,2.2-12,0.8c-2.5-0.9-3.7-0.4-5,2c-1.4,2.7-1.3,5.6-0.9,8.4
		c0.2,1.8,0.5,3.6,0.7,5.4c0.2,1-0.2,1.6-1.2,1.9c-3.3,0.9-6.7,1-10.2,0.8c-0.5,0-0.8-0.3-0.8-0.8c0-0.9-0.2-1.9-0.3-2.8
		c-0.1-1.4-0.8-2.5-2-3.2c-0.7-0.4-0.7-0.7-0.5-1.4c1.3-4.3,1-8.4-0.8-12.4c-0.4-0.9-1-1.7-1.9-2.1c-3-1.5-5.9-3.5-9.2-4.4
		c-0.6-0.2-1.2-0.2-1.8,0.1c-1.4,0.6-1.8,1.7-1,3c0.8,1.5,2,2.8,3.1,4.2c0.9,1.1,1.9,2.2,2.7,3.5c1,1.5,1.2,3.2,0.9,5
		c-0.5,2.9-2,5.5-4.2,7.5c-0.6,0.6-1.3,0.8-2.2,0.6c-1.6-0.3-3-0.9-4.2-2.2c-1.1-1.2-0.9-2.4,0.3-3.5c0.3-0.2,0.7-0.4,1-0.7
		c2.1-1.4,2.3-3.6,0.5-5.3c-2-1.8-4-3.9-6.1-5.5C3.7,60.3,0.4,54.1,0,46.3c-0.4-8.5,1.8-16.2,6.6-23.2c1.9-2.8,4.5-4.7,7.7-5.6
		c5.6-1.5,11.2-3.1,17.1-3c2.5,0,5,0.4,7.3,1.3c3.6,1.4,6,3.9,7.2,7.5c2.1,6.8,2,13.3-2.5,19.2c-2.2,2.9-5.2,4.9-8.8,5.8
		c-2.8,0.7-4.4,0.2-6-2.2c-1.2-1.8-2.3-3.9-3.6-5.8C25.3,40.1,25.3,40,25,40z"/>
	<path class="st1" d="M8.3,61.9c-1-0.2-2.2,0-2.7-1C4.9,59.8,6,59,6.6,58.3c1-1.3,2.1-2.5,3.2-3.8c0.9-1.1,2-1.1,3-0.2
		c2.4,2.2,1.9,5.6-1.1,6.9C10.7,61.7,9.5,61.8,8.3,61.9z"/>
	<path class="st1" d="M11.4,41.3c1.2,0,2.1,0.9,2.1,2.1c0,1.2-1.1,2.2-2.2,2.2s-2.1-1-2.1-2.2C9.2,42.2,10.1,41.3,11.4,41.3z"/>
</g>
</svg>
