<?xml version="1.0" encoding="utf-8"?>
<!-- Generator: Adobe Illustrator 22.0.1, SVG Export Plug-In . SVG Version: 6.00 Build 0)  -->
<svg version="1.1" id="Calque_1" xmlns="http://www.w3.org/2000/svg" xmlns:xlink="http://www.w3.org/1999/xlink" x="0px" y="0px"
	 viewBox="0 0 100 100" style="enable-background:new 0 0 100 100;" xml:space="preserve">
<style type="text/css">
	.st0{fill:#CB6697;}
</style>
<path class="st0" d="M79.1,1.6c-6.4-1.9-12.9-1.9-19.5-0.7C46.7,3.5,35.2,9.1,24.7,16.5c-6.4,4.6-12,10.2-15.3,17.5
	c-2.2,5.1-2.1,9.9,0.9,14.5c2.1,3.3,4.8,6,7.8,8.4c4.5,3.7,9.4,6.9,14.1,10.2c1.6,1.2,1.5,1.6-0.3,2.5c-5.8,3-11.5,6.4-16,11.4
	c-3.1,3.4-4.2,7.5-3.6,12.1c0.6,3.9,3.3,6.4,7.2,6.7c7.2,0.6,13.2-1.8,17.8-7c5.4-6.1,6.7-13.2,4.8-21c-0.1-0.7-1-1.9,0.6-2.1
	c6.4-1,12.9-0.7,18.4,3.3c4.5,3.3,6,9.9,0.1,13.5c-0.3,0.1-0.7,0.4-0.7,1.3c1.6,0.1,2.8-0.6,4-1.5c4.3-3.7,4.5-9.9,0.3-14.8
	c-4.8-5.7-11.4-6.7-18.3-6.3c-2.5,0.1-5.2,2.2-7.5,1c-2.2-1.2-4-3.6-6.1-5.2c-3.9-3-7.8-5.8-11.1-9.4c-4-4.5-4.9-9.6-2.7-15.1
	c1-2.4,2.5-4.6,4.3-6.6c7.8-8.4,17.7-13.6,28.1-17.7c7.8-3,15.9-4.6,24.2-3.1c7.5,1.3,10.8,6.6,8.1,13.3c-0.9,2.2-2.1,4.3-3.6,6.1
	C72.3,37.8,62.2,42,50.2,42.1c-3.4,0-6.4-1.2-9.1-3.3c-0.4-0.4-0.7-1.6-1.8-0.7c-0.7,0.6,0,1.5,0.3,2.1c2.1,3.6,5.4,5.2,9.3,6.1
	c4,0.7,7.9,0.6,12,0c12.6-1.9,22.9-7.3,28.9-19.2C94.5,16.2,92.5,5.6,79.1,1.6z M37,74.3c0,0.7,0.1,1.3,0.3,2.1
	c0,7.5-4.6,14.2-10.9,16.5c-1.8,0.6-3.9,1.2-5.5-0.3c-1.6-1.5-1-3.6-0.4-5.5c1.6-5.1,5.8-7.8,9.7-10.8c1.5-1,3.1-1.9,4.6-3
	C36.3,72.4,37,72.5,37,74.3z"/>
</svg>
