<?xml version="1.0" encoding="utf-8"?>
<!-- Generator: Adobe Illustrator 22.0.1, SVG Export Plug-In . SVG Version: 6.00 Build 0)  -->
<svg version="1.1" id="Calque_1" xmlns="http://www.w3.org/2000/svg" xmlns:xlink="http://www.w3.org/1999/xlink" x="0px" y="0px"
	 viewBox="0 0 100 100" style="enable-background:new 0 0 100 100;" xml:space="preserve">
<style type="text/css">
	.st0{fill:#438CCA;}
</style>
<path class="st0" d="M92.5,23.6c0-1.2-0.1-2.4-0.4-3.5c-0.8-3.6-2.8-6.4-5.5-8.8C83.5,8.5,79.8,6.4,76,4.8C68.6,1.7,60.7,0.3,52.8,0
	c-4.2-0.1-8.5,0-12.7,0.6c-4.7,0.8-9.4,1.7-13.9,3.3c-4.5,1.6-8.6,3.7-12.3,6.8C11.4,13,9.3,15.5,8,18.8c-0.7,2.1-0.8,4.2-0.8,6.5
	c0,17.1,0,34.2,0,51.3c0,1.9,0.3,3.7,1,5.4c1.3,3,3.3,5.4,5.7,7.5c3.2,2.7,6.9,4.6,10.7,6.2c6.5,2.5,13.5,3.8,20.4,4.2
	c7.4,0.5,14.9-0.1,22.1-1.8c5.2-1.3,10.3-3.1,14.8-6.1c3.3-2,6.1-4.5,8.1-7.8c1.5-2.3,2.3-4.8,2.3-7.5c0-8.9,0-18,0.1-23.5
	C92.6,41.1,92.6,32.4,92.5,23.6z M86.2,70.8c0,1.8,0,3.5,0,5.4c0.1,2.5-0.8,4.5-2.3,6.5c-1.7,2.1-3.8,3.7-6.2,5.1
	c-4,2.3-8.3,3.8-12.9,4.8c-6.9,1.6-13.9,2-20.9,1.4c-6.6-0.6-13-1.8-19.1-4.5c-3.3-1.4-6.2-3.3-8.8-5.8c-1.6-1.7-2.7-3.5-3-5.9
	c0-0.3,0-0.6,0-1c0-2.3,0-4.5,0-6.8c0-0.3,0-0.4,0-0.7c0.3,0,0.3,0,0.4,0.1c3.3,3.1,7.1,5.4,11.2,7.1c4.7,1.8,9.5,3.1,14.4,3.8
	c4.1,0.6,8.2,0.8,12.4,0.7c8.2-0.1,16.1-1.4,23.8-4.5c3.8-1.6,7.4-3.5,10.5-6.4c0.2-0.2,0.2-0.3,0.5-0.3
	C86.2,70.1,86.2,70.5,86.2,70.8z M86.4,63.7c0,0.6-0.1,1.1-0.6,1.6c-2,2.5-4.4,4.4-7.2,5.8c-4.4,2.4-9,4-13.9,4.9
	c-6.4,1.4-12.9,1.8-19.4,1.4c-7.1-0.4-14.1-1.8-20.6-4.7c-3.4-1.6-6.6-3.4-9.3-6.1c-0.1-0.1-0.4-0.4-0.6-0.6c-1.3-1.3-2-2.8-1.8-4.7
	c0.1-3,0-6.1,0-9c0-0.3-0.1-0.7,0.1-1c0.1,0,0.3,0.1,0.4,0.1c3.7,3.5,8.1,5.9,12.9,7.6c4.4,1.6,8.9,2.5,13.4,3.3
	c4.7,0.6,9.2,0.7,13.9,0.6c8.1-0.4,15.8-1.8,23.2-5.1c3.5-1.5,6.6-3.5,9.4-6.1c0.1,0.4,0.1,0.7,0.1,1C86.4,56.4,86.4,60.1,86.4,63.7
	z M86.5,46.3c0,0.4-0.3,0.8-0.4,1.1c-1.4,1.8-3,3.3-4.8,4.7c-4.1,2.8-8.6,4.5-13.3,5.8c-4.5,1.3-9,1.8-13.7,2.1
	c-8.5,0.4-16.7-0.4-24.7-3c-3.7-1.1-7.1-2.7-10.3-4.8c-2.1-1.4-4-3.1-5.4-5.1c-0.4-0.6-0.6-1-0.6-1.7c0-2.8,0-5.7,0-8.5
	c0-0.3-0.1-0.7,0.3-1c0.3-0.1,0.6,0.3,0.7,0.4c4,3.4,8.6,5.5,13.6,7.2c4.8,1.6,9.8,2.5,14.7,3c3.4,0.3,6.8,0.4,10.2,0.3
	c7.8-0.3,15.4-1.6,22.8-4.5c4-1.6,7.5-3.5,10.7-6.4c0,0.1,0.2,0.1,0.2-0.1C86.5,39.3,86.5,42.7,86.5,46.3z M84,30.1
	c-2.3,2.5-4.9,4.2-8.1,5.8c-4.7,2.3-9.8,3.5-14.8,4.4c-4.9,0.8-9.9,1-14.8,0.7c-7.9-0.4-15.6-1.8-22.8-5.4c-2.7-1.3-5.2-3-7.4-5.2
	c-0.7-0.7-1.3-1.6-1.8-2.5c-1.7-3-1.6-5.9,0.1-8.9c1.1-2,2.8-3.7,4.8-4.9c3.1-2.3,6.6-3.8,10.3-4.9c4.7-1.6,9.5-2.4,14.3-2.8
	C46,6.1,48,6.1,49.6,6c7.4,0,14,0.8,20.6,3c3.5,1.1,6.8,2.5,9.9,4.7c1.6,1,3,2.3,4.2,3.7C87.7,21.5,87.6,26,84,30.1z"/>
</svg>
