<?xml version="1.0" encoding="utf-8"?>
<!-- Generator: Adobe Illustrator 22.0.1, SVG Export Plug-In . SVG Version: 6.00 Build 0)  -->
<svg version="1.1" id="Calque_1" xmlns="http://www.w3.org/2000/svg" xmlns:xlink="http://www.w3.org/1999/xlink" x="0px" y="0px"
	 viewBox="0 0 100 100" style="enable-background:new 0 0 100 100;" xml:space="preserve">
<style type="text/css">
	.st0{fill:#438CCA;}
	.st1{fill:#224966;}
</style>
<g>
	<path class="st0" d="M52.4,67.1h45.2c1.5,0,2.6-1.4,2.4-2.8c-1-5.8-5.5-18.4-25-18.4S51.1,58.5,50,64.3
		C49.8,65.7,50.9,67.1,52.4,67.1z"/>
	<ellipse class="st0" cx="75" cy="34.3" rx="15.2" ry="15.6"/>
</g>
<g>
	<path class="st0" d="M2.4,67.1h45.2c1.5,0,2.6-1.4,2.4-2.8c-1-5.8-5.5-18.4-25-18.4S1.1,58.5,0,64.3C-0.2,65.7,0.9,67.1,2.4,67.1z"
		/>
	<ellipse class="st0" cx="25" cy="34.3" rx="15.2" ry="15.6"/>
</g>
<g>
	<path class="st1" d="M25.2,81.3h49.7c1.7,0,2.9-1.5,2.6-3.1c-1.1-6.4-6-20.2-27.4-20.2S23.7,71.8,22.6,78.2
		C22.3,79.8,23.5,81.3,25.2,81.3z"/>
	<circle class="st1" cx="50" cy="45.6" r="16.7"/>
</g>
</svg>
