<?xml version="1.0" encoding="utf-8"?>
<!-- Generator: Adobe Illustrator 22.0.1, SVG Export Plug-In . SVG Version: 6.00 Build 0)  -->
<svg version="1.1" id="Calque_1" xmlns="http://www.w3.org/2000/svg" xmlns:xlink="http://www.w3.org/1999/xlink" x="0px" y="0px"
	 viewBox="0 0 100 100" style="enable-background:new 0 0 100 100;" xml:space="preserve">
<style type="text/css">
	.st0{fill:#464646;}
	.st1{fill:#FEFEFE;}
</style>
<g>
	<path class="st0" d="M99.9,50c0,27.6-22.3,50.1-49.7,50c-29.4-0.1-50.4-24.3-50-50.7C0.6,22.3,23.3-0.4,51.3,0
		C77.7,0.4,99.9,22.9,99.9,50z"/>
	<path class="st1" d="M50,97.6c-26.4,0-47.4-21.4-47.4-48.4c0-25.4,21.9-46.9,47.6-46.7C77.6,2.6,98,25.3,97.6,51.1
		C97.1,76.3,75.7,97.6,50,97.6z"/>
	<path class="st0" d="M78.7,18.4c-5.7,0.7-8.6,5.1-7,10.4c0.7,2.4,2.1,4.6,3.4,6.7C79,41.6,80,48,77.7,55
		c-2.1,6.9-4.1,13.7-6.4,21.1c-1.4-4-2.6-7.6-3.9-11.1c-3.7-11-7.3-22-11.1-32.9c-0.7-2-0.3-2.6,1.7-2.4c0.9,0,1.7,0,2.6-0.1
		c1-0.1,1.7-0.9,1.6-1.9s-1-1.6-2-1.4c-2,0.1-4,0.3-6,0.4c-5.3,0.4-10.4,0-15.6-0.3c-1.3-0.1-2.4,0-2.6,1.6s1.1,2,2.3,1.9
		c3-0.3,4.3,1.1,5.1,3.9c1.3,4.4,3.1,8.9,4.7,13.1c0.3,0.9,0.6,1.6,0.3,2.4c-3,8.9-6,17.9-9,26.9c-0.9-0.3-0.7-0.9-0.9-1.3
		C33.7,60.6,29,46.3,24.1,32c-0.4-1.4-0.3-2.1,1.3-2c0.9,0,1.7-0.1,2.6-0.1c1.1-0.1,2.1-0.6,2-2c-0.1-1.4-1.1-1.6-2.3-1.6
		c-3.9,0.3-7.9,0.4-11.7,0.6c-0.6,0-1.1,0.1-1.6-0.3C27.9,4.6,60.1,0.4,78.7,18.4z"/>
	<path class="st0" d="M50.9,53.6c2.9,7.7,5.4,15,8,22.1c1.6,4.4,3.1,8.7,4.9,13.1c0.4,1.1,0.6,1.7-1,2.3c-7.7,2.3-15.4,2.4-23.1,0.6
		c-0.9-0.1-1.9-0.1-1.3-1.7C42.4,78,46.4,66,50.9,53.6z"/>
	<path class="st0" d="M11.1,32.7c6.7,18.6,13.4,37,20.3,55.6C9.6,78.6,1.7,51.1,11.1,32.7z"/>
	<path class="st0" d="M87.6,30C98,47.1,92.9,75,71.4,86.9c1.4-4.1,2.7-7.9,4-11.7c3.3-9.4,6.6-19,9.9-28.4
		C87.3,41.4,88.3,35.9,87.6,30z"/>
</g>
</svg>
