<?xml version="1.0" encoding="utf-8"?>
<!-- Generator: Adobe Illustrator 22.0.1, SVG Export Plug-In . SVG Version: 6.00 Build 0)  -->
<svg version="1.1" id="Calque_1" xmlns="http://www.w3.org/2000/svg" xmlns:xlink="http://www.w3.org/1999/xlink" x="0px" y="0px"
	 viewBox="0 0 1000 1000" style="enable-background:new 0 0 1000 1000;" xml:space="preserve">
<style type="text/css">
	.st0{fill:none;stroke:#438CCA;stroke-width:40;stroke-miterlimit:10;}
	.st1{fill:none;stroke:#438CCA;stroke-width:40;stroke-linecap:round;stroke-miterlimit:10;}
</style>
<title>hand-drag1</title>
<path class="st0" d="M806.8,488.7c0-9.3-1-19.1-4.1-27.7c-6.2-18.5-27.1-30.2-45.6-27c-22.3,3.8-34.5,17.8-34.6,40.2
	c-0.2,28.3,0.1,56.7-0.2,85c0,3-0.3,5.9-0.9,8.8c-0.8,4.8-2.9,8.8-4.7,8.9c-1.8,0.1-4.3-3.8-5.4-8.7c-0.7-3-1.3-6-1.3-9
	c-0.3-40.1,0.3-80.3-0.3-120.4c-0.4-24.2-20.8-42.9-44.2-42.2c-23.9,0.8-37.6,16.2-37.6,42c0,29,0.3,57.8-0.2,86.8
	c0,2.8-0.8,5.6-1.7,8.5c-0.5,1.7-1.3,3.3-2.1,4.6c-1.5,2.4-5.9,1-7-2.3c-0.5-1.8-1-3.9-1.1-6.3c-0.3-3.7-0.6-7.3-0.7-10.9
	c-0.6-37.8,0.5-75.7-1.7-113.3c-1.6-26.3-21.3-42.2-45-41c-24.1,1.2-40.9,20.1-41,47c-0.2,34.3,0.2,68.5-0.2,102.8
	c0,2.9-0.6,5.7-1.3,8.5c-1.2,4.6-3.8,8.1-5.7,8c-1.9-0.2-4-5.2-4.6-11.2c-0.3-3.6-0.7-7.3-0.7-10.8c-0.1-60.1,0.1-120.3,0-180.5
	c-0.2-13.1-0.2-26.2-0.3-39.4c-0.1-34.2-21.5-57.4-50.7-57.3c-29.7,0.2-48.6,22.6-48.6,57.9v38.8c0,96.9,0,193.9-0.2,290.8
	c0,3-0.8,6-1.7,9c-1.6,4.8-6.8,7.3-11.7,5.6c-3.1-1.1-5.9-2.4-8.3-4.3c-25.5-20.7-50.3-42.2-75.6-63.2c-14.2-11.7-30.2-17-48.5-11.5
	c-20.6,6.1-33.8,19.3-38.6,40.3c-4.9,21.6,3.9,38,19.9,51.5c55.5,47,111.5,93.5,166.6,141c7.5,6.5,13.6,16.4,16.6,25.8
	c11.4,36,21.7,72.3,31.3,108.8c3.1,11.5,8.7,15.1,20.1,15.1c82.4-0.3,164.7-0.4,247.1,0.1c12.9,0.1,18.2-5.1,20.8-16.6
	c4.4-20.2,9.4-40.2,14.9-60.1c3.1-11.2,4.6-24.4,11.7-32.7c20.6-24.2,26.9-52.3,27.1-82.3C807.2,659.9,807.1,574.2,806.8,488.7
	L806.8,488.7z"/>
<line class="st1" x1="463.9" y1="163.1" x2="463.9" y2="58.1"/>
<line class="st1" x1="549" y1="197.8" x2="623.2" y2="123.5"/>
<line class="st1" x1="389.8" y1="194.2" x2="315.5" y2="120"/>
<line class="st1" x1="355" y1="273.1" x2="250" y2="273.1"/>
<line class="st1" x1="577.2" y1="275.1" x2="682.2" y2="275.1"/>
</svg>
