<?xml version="1.0" encoding="utf-8"?>
<!-- Generator: Adobe Illustrator 22.0.1, SVG Export Plug-In . SVG Version: 6.00 Build 0)  -->
<svg version="1.1" id="Calque_1" xmlns="http://www.w3.org/2000/svg" xmlns:xlink="http://www.w3.org/1999/xlink" x="0px" y="0px"
	 viewBox="0 0 24 24" style="enable-background:new 0 0 24 24;" xml:space="preserve">
<style type="text/css">
	.st0{fill:none;stroke:#E39581;stroke-miterlimit:10;}
</style>
<path class="st0" d="M19.9,2.9h-4.7c-0.5-1.3-1.7-2.3-3.2-2.3s-2.7,1-3.2,2.3H4.1c-1.2,0-2.3,1-2.3,2.3V21c0,1.2,1,2.3,2.3,2.3h15.8
	c1.2,0,2.3-1,2.3-2.3V5.1C22.1,3.9,21.1,2.9,19.9,2.9z M12,2.9c0.6,0,1.1,0.5,1.1,1.1S12.6,5.1,12,5.1S10.9,4.6,10.9,4
	S11.4,2.9,12,2.9z M14.3,18.6H6.4v-2.3h7.9V18.6z M17.6,14.1H6.4v-2.3h11.3v2.3H17.6z M17.6,9.6H6.4V7.4h11.3v2.2H17.6z"/>
</svg>
