<?xml version="1.0" encoding="utf-8"?>
<!-- Generator: Adobe Illustrator 22.0.1, SVG Export Plug-In . SVG Version: 6.00 Build 0)  -->
<svg version="1.1" id="Calque_1" xmlns="http://www.w3.org/2000/svg" xmlns:xlink="http://www.w3.org/1999/xlink" x="0px" y="0px"
	 viewBox="0 0 300 300" style="enable-background:new 0 0 300 300;" xml:space="preserve">
<style type="text/css">
	.st0{fill:#1C3954;}
</style>
<path class="st0" d="M148.7-0.3C80.2-0.3,24.6,55.3,24.6,123.8v154l0,0v8l0,0v13.9h127.7c1,0,2,0,3,0c0.3,0,0.6,0,0.9,0
	c0.7,0,1.4,0,2-0.1c0.4,0,0.7,0,1.1-0.1c0.6,0,1.3-0.1,1.9-0.1c0.3,0,0.7,0,1-0.1c0.7-0.1,1.5-0.1,2.2-0.2c0.2,0,0.5,0,0.7-0.1
	c1-0.1,1.9-0.2,2.9-0.3c0.2,0,0.4-0.1,0.6-0.1c0.7-0.1,1.5-0.2,2.2-0.3c0.3,0,0.7-0.1,1-0.2c0.6-0.1,1.3-0.2,1.9-0.3
	c0.3-0.1,0.7-0.1,1-0.2c0.6-0.1,1.3-0.2,1.9-0.4c0.3-0.1,0.6-0.1,0.9-0.2c0.8-0.2,1.7-0.4,2.5-0.6c0.1,0,0.2,0,0.2-0.1
	c0.9-0.2,1.8-0.4,2.8-0.7c0.3-0.1,0.6-0.1,0.8-0.2c0.6-0.2,1.3-0.3,1.9-0.5c0.3-0.1,0.7-0.2,1-0.3c0.6-0.2,1.2-0.4,1.8-0.5
	c0.3-0.1,0.6-0.2,1-0.3c0.7-0.2,1.3-0.4,1.9-0.6c0.2-0.1,0.5-0.2,0.7-0.2c0.9-0.3,1.8-0.6,2.6-0.9c0.2-0.1,0.3-0.1,0.5-0.2
	c0.7-0.3,1.4-0.5,2.1-0.8c0.3-0.1,0.6-0.2,0.9-0.4c0.6-0.2,1.2-0.5,1.7-0.7c0.3-0.1,0.6-0.3,0.9-0.4c0.6-0.2,1.1-0.5,1.7-0.8
	c0.3-0.1,0.6-0.3,0.9-0.4c0.7-0.3,1.4-0.7,2.1-1c0.1-0.1,0.3-0.1,0.4-0.2c0.8-0.4,1.7-0.8,2.5-1.2c0.2-0.1,0.5-0.3,0.7-0.4
	c0.6-0.3,1.2-0.6,1.7-0.9c0.3-0.2,0.6-0.3,0.9-0.5c0.5-0.3,1.1-0.6,1.6-0.9c0.3-0.2,0.6-0.3,0.9-0.5c0.6-0.3,1.1-0.7,1.7-1
	c0.2-0.1,0.5-0.3,0.7-0.4c0.8-0.5,1.6-1,2.3-1.5c0.1-0.1,0.2-0.2,0.4-0.2c0.7-0.4,1.3-0.8,1.9-1.3c0.3-0.2,0.5-0.3,0.8-0.5
	c0.5-0.3,1-0.7,1.5-1.1c0.3-0.2,0.5-0.4,0.8-0.6c0.5-0.4,1-0.7,1.5-1.1c0.3-0.2,0.5-0.4,0.8-0.6c0.1-0.1,0.2-0.2,0.3-0.2
	c0,0,0,0,0,0c0.3-0.2,0.6-0.5,0.9-0.7c0,0,0.1,0,0.1-0.1c0,0,0,0,0,0c29.4-22.7,48.3-58.3,48.3-98.3V-0.3H148.7z"/>
<path d="M119.4,114.5c0,0.9,1.1,1.3,1.7,0.6l25.6-29.5c1.8-2.5,5.7-1.2,5.7,1.9c-1,124.6-33.4,188.8-44.3,177.9
	c-8.9-8.9,63.4-135.2,84.8-172.2c1.6-2.8,5.9-1.6,5.9,1.6V149c0,1.8,1.5,3.2,3.2,3.2l4.5-0.1c1.7,0,3.1-1.4,3.1-3.2V55.2
	c0-3.2-4.2-4.4-5.9-1.6c-27.3,44.9-139,232.2-107.5,232.2c68.6,2.4,68.5-190.6,67.6-233.4c-0.1-2.9-3.7-4.2-5.6-2l-37,44.2
	c-1.3,1.6-2,3.5-2,5.5L119.4,114.5z"/>
</svg>
