<?xml version="1.0" encoding="utf-8"?>
<!-- Generator: Adobe Illustrator 22.0.1, SVG Export Plug-In . SVG Version: 6.00 Build 0)  -->
<svg version="1.1" id="Calque_1" xmlns="http://www.w3.org/2000/svg" xmlns:xlink="http://www.w3.org/1999/xlink" x="0px" y="0px"
	 viewBox="0 0 355.9 267.1" style="enable-background:new 0 0 355.9 267.1;" xml:space="preserve">
<style type="text/css">
	.st0{fill:#E39581;}
	.st1{fill:#DFDFDF;}
	.st2{fill:#EEEEEE;}
	.st3{fill:#E9E9E9;}
	.st4{fill:#DE5346;}
	.st5{fill:#CBCBCB;}
	.st6{fill:#E2E2E2;}
</style>
<title>gmail</title>
<g>
	<path class="st0" d="M327,0.9c16-2.6,23.1,5,26.7,12.4c1.4,2.9,2.1,6,2.1,9.2c0,74,0.1,148.1,0.1,222.1c0,1.5,0.3,3-0.8,4.3
		c-2.5-2.5-1.7-5.6-1.7-8.5c0-44.5,0-89,0-133.5c0-22,0-44,0-66c0-2.6-0.3-5.4,0.7-6.8c-1,3.2-4.5,5.7-7.8,8.3
		c-9,7-18.2,13.6-27.3,20.2c-4,2.9-5.5,6.1-5.5,10.9c0.1,29.5,0.1,59,0.1,88.5c0,32.2,0,64.3,0,96.5c0,2.8,0.6,5.7-1.7,8.1l-0.3,0.1
		h-0.4c-2.3-2.4-1.5-5.4-1.5-8.1c0-61.2-0.1-122.3,0-183.5c0-1.6,0.4-3.3-0.4-5.2c-5.8,2.8-10.4,7.1-15.5,10.8
		c-36.2,26.4-72.5,52.7-108.7,79.2c-1.6,1.2-3.3,2.3-5.1,3.2c-3.4,1.2-5.8-1-8.1-2.7c-18.9-13.9-38-27.5-56.9-41.4
		c-21.9-16-43.9-31.8-65.8-47.8c-0.8-0.6-1.4-1.5-2.8-1.1c-0.1,2.9-0.1,5.9,0.1,8.8c0,60.1,0,120.2,0,180.3c0,2.6,0.6,5.4-1.5,7.6
		h-0.4l-0.4-0.2c-2.1-2.4-1.5-5.4-1.5-8.1c0-61-0.2-121.9,0.2-182.9c0-8-2.9-12.6-9.3-16.5C23.3,52.8,14.2,45.2,5.2,37.5
		c-3.1-2.4-4.7-6.1-4.3-10c0.2-3.6,0.3-7.3,0.3-10.9c3.3-13,14.7-18.7,29.7-15C34,2,36.4,3.8,38.9,5.5
		c43.6,31.8,87.2,63.6,130.9,95.4l1.6,1.1c6.7,4.6,6.7,4.6,13.3-0.2c44.5-32.1,88.8-64.3,133-96.7C320.4,3,323.3,1.1,327,0.9z"/>
	<path class="st1" d="M178.9,162.7c19.5-14.3,38.9-28.5,58.4-42.8c22.9-16.7,45.7-33.3,68.6-49.9c1.4-1,2.7-2.4,5.1-2.8v199.4h-74.1
		c-5.7-3.4-9.7-8.6-14.2-13.2c-22.2-22.3-44.6-44.3-66.6-66.8c-1.4-1.4-3.5-2-4.4-3.9c-0.1-0.5,0-1,0.2-1.4
		c7.5-4.2,14-9.8,20.1-15.7C174.1,163.7,176.4,163.2,178.9,162.7z"/>
	<path class="st2" d="M327,0.9c-14.8,8.5-27.8,19.4-41.6,29.3c-35,25.2-69.8,50.6-104.5,76.2c-2.8,2.1-4.4,0.9-6.5-0.6
		c-23.3-16.9-46.6-33.9-69.9-50.8C80,37.1,55.4,19.4,30.9,1.6c2.3-1.4,4.8-1,7.3-1c93.6,0,187.2,0,280.8,0.1
		C321.6,0.7,324.4-1,327,0.9z"/>
	<path class="st0" d="M1.1,16.7c1.5,2.1,1.1,4.7,0.7,6.8c-1.6,8,3.1,12.6,8.6,16.9C20.5,48.2,30.9,55.8,41.6,63
		c2.6,1.7,2.3,4.2,2.3,6.7c0,37.8,0,75.6,0,113.4c0,27.8,0,55.6,0,83.4c-8.3,0.8-16.6,0.8-24.8,0.1c-9.3-0.8-16.6-8.3-18.3-17.7
		c-0.7-1.6-0.4-3.3-0.4-4.9c0-73.5,0-147,0-220.5c0-1.7-0.3-3.3,0.4-4.9L1.1,16.7z"/>
	<path class="st0" d="M311.8,266.5c0.1-7,0.2-14,0.2-21c0-58.2,0-116.3-0.1-174.5c0-4.5,2-6.6,5.3-9.2c11.3-8.7,23.6-16,34-25.9
		c1.5-1.4,3.3-2.8,3.9-5.2v5.2c0,69.8,0,139.6,0,209.5c0,1.2,0.1,2.3,0.1,3.5c-1.9,9.6-9.2,17-18.4,17.8
		C328.4,267.2,320.1,267.2,311.8,266.5z"/>
	<path class="st3" d="M151.9,182.6c5.7,2.4,9,7.6,13.3,11.7c15.6,15.2,30.9,30.7,46.4,46.1c8.4,8.4,16.8,16.8,25.2,25.2
		c0.2,0.2,0.1,0.6,0.2,1H44.8c0-61.3,0-122.7,0-184c0-2,0.1-4,0.2-6c0.5-0.3,1.2-0.1,1.5,0.4c0,0,0,0,0,0c1.3,2.7,0.8,5.6,0.8,8.4
		c0,56.1,0,112.3,0.1,168.4c0,2.3-1.1,5.3,1,6.5s4.2-1.4,6-2.6c6.9-4.4,13-9.9,19.3-15c10.5-8.5,21.5-16.2,31.8-24.8
		c14.3-12,30.1-22,44.1-34.3C150.3,183,151.1,182.7,151.9,182.6z"/>
	<path class="st4" d="M0.8,18.4v230.4c-1.2-2-0.7-4.2-0.7-6.3c0-72.7,0-145.5,0-218.2C0.1,22.3-0.4,20.3,0.8,18.4z"/>
	<path class="st5" d="M45.9,76.7L45,76.6v-9.4c4.6,1.9,7.9,5.1,11.6,7.7c35.9,25.9,71.8,51.9,107.6,78c4.8,3.5,8.9,8,14.8,9.9
		c-7.2,4-12.6,10.3-19.2,15.1c-2.4,1.8-4.5,4-7.8,3.8c-2.2-0.4-3.1-2.4-4.5-3.7c-9-8.6-17.6-17.6-26.7-26.1
		c-24.1-22.3-46.6-46.3-70.2-69.3C48.7,80.8,47.1,78.8,45.9,76.7z"/>
	<path class="st6" d="M45.9,76.7c3.7,3.5,7.5,7,11.2,10.6c19.3,19.2,38.3,38.8,57.9,57.7c12.1,11.7,24.3,23.4,36.1,35.4
		c0.3,0.4,0.6,0.8,0.8,1.2c0,0.3,0,0.7,0,1c-3.8,5.7-10,8.7-15,12.9c-11.4,9.5-23.6,18.1-35.3,27.3c-6.9,5.5-13.9,11.2-21.2,16.2
		c-6.8,4.8-13.2,10-19.2,15.6c-3.4,3.1-7.4,4.9-11,7.6c-2.5,1.9-4.3,1.3-4.3-2.7c0.2-15.8,0.1-31.6,0.1-47.5
		C45.9,166.9,45.9,121.8,45.9,76.7z"/>
</g>
</svg>
