<?xml version="1.0" encoding="utf-8"?>
<!-- Generator: Adobe Illustrator 22.0.1, SVG Export Plug-In . SVG Version: 6.00 Build 0)  -->
<svg version="1.1" id="Calque_1" xmlns="http://www.w3.org/2000/svg" xmlns:xlink="http://www.w3.org/1999/xlink" x="0px" y="0px"
	 viewBox="0 0 500 100" style="enable-background:new 0 0 500 100;" xml:space="preserve">
<style type="text/css">
	.st0{fill:#CB6697;}
	.st1{fill:#EDE551;}
	.st2{fill:#C8733B;}
	.st3{opacity:0.98;fill:#4F95B4;enable-background:new    ;}
</style>
<g>
	<path class="st0" d="M77.6,6c-4.3-1.3-8.6-1.3-13-0.5C56,7.3,48.3,11,41.3,16c-4.3,3.1-8,6.8-10.2,11.7c-1.5,3.4-1.4,6.6,0.6,9.7
		c1.4,2.2,3.2,4,5.2,5.6c3,2.5,6.3,4.6,9.4,6.8c1.1,0.8,1,1.1-0.2,1.7c-3.9,2-7.7,4.3-10.7,7.6c-2.1,2.3-2.8,5-2.4,8.1
		c0.4,2.6,2.2,4.3,4.8,4.5c4.8,0.4,8.8-1.2,11.9-4.7c3.6-4.1,4.5-8.8,3.2-14c-0.1-0.5-0.7-1.3,0.4-1.4c4.3-0.7,8.6-0.5,12.3,2.2
		c3,2.2,4,6.6,0.1,9c-0.2,0.1-0.5,0.3-0.5,0.9c1.1,0.1,1.9-0.4,2.7-1c2.9-2.5,3-6.6,0.2-9.9c-3.2-3.8-7.6-4.5-12.2-4.2
		c-1.7,0.1-3.5,1.5-5,0.7c-1.5-0.8-2.7-2.4-4.1-3.5c-2.6-2-5.2-3.9-7.4-6.3c-2.7-3-3.3-6.4-1.8-10.1c0.7-1.6,1.7-3.1,2.9-4.4
		c5.2-5.6,11.8-9.1,18.8-11.8c5.2-2,10.6-3.1,16.2-2.1c5,0.9,7.2,4.4,5.4,8.9c-0.6,1.5-1.4,2.9-2.4,4.1c-5.4,6.1-12.2,8.9-20.2,9
		c-2.3,0-4.3-0.8-6.1-2.2c-0.3-0.3-0.5-1.1-1.2-0.5c-0.5,0.4,0,1,0.2,1.4c1.4,2.4,3.6,3.5,6.2,4.1c2.7,0.5,5.3,0.4,8,0
		c8.4-1.3,15.3-4.9,19.3-12.8C87.9,15.8,86.6,8.7,77.6,6z M49.5,54.6c0,0.5,0.1,0.9,0.2,1.4c0,5-3.1,9.5-7.3,11
		c-1.2,0.4-2.6,0.8-3.7-0.2c-1.1-1-0.7-2.4-0.3-3.7c1.1-3.4,3.9-5.2,6.5-7.2c1-0.7,2.1-1.3,3.1-2C49,53.3,49.5,53.4,49.5,54.6z"/>
	<g>
		<path class="st0" d="M36.5,94.2c-0.7-0.6-1.1-1.3-1.1-2.2v-0.5c0-0.1,0-0.1,0.1-0.1c0,0,0.1-0.1,0.1-0.1h0.5c0.1,0,0.1,0,0.1,0.1
			c0,0,0.1,0.1,0.1,0.1v0.5c0,0.7,0.3,1.2,0.9,1.7c0.6,0.4,1.3,0.6,2.3,0.6c0.9,0,1.6-0.2,2.1-0.6c0.5-0.4,0.7-0.9,0.7-1.6
			c0-0.4-0.1-0.8-0.3-1.1c-0.2-0.3-0.5-0.6-1-0.9c-0.5-0.3-1.1-0.6-1.9-0.9c-0.9-0.4-1.5-0.7-2-0.9c-0.4-0.2-0.8-0.6-1.1-0.9
			c-0.3-0.4-0.4-0.9-0.4-1.4c0-0.9,0.3-1.6,0.9-2.1c0.6-0.5,1.5-0.7,2.6-0.7c1.2,0,2.2,0.3,2.9,0.8c0.7,0.6,1,1.3,1,2.2v0.4
			c0,0.1,0,0.1-0.1,0.1c0,0-0.1,0.1-0.1,0.1h-0.5c-0.1,0-0.1,0-0.1-0.1c0,0-0.1-0.1-0.1-0.1v-0.3c0-0.7-0.3-1.3-0.8-1.7
			c-0.5-0.4-1.3-0.6-2.3-0.6c-0.8,0-1.5,0.2-2,0.5c-0.5,0.4-0.7,0.9-0.7,1.5c0,0.4,0.1,0.8,0.3,1.1c0.2,0.3,0.5,0.5,0.9,0.7
			c0.4,0.2,1,0.5,1.8,0.8c0.8,0.3,1.5,0.7,2,1c0.5,0.3,0.9,0.7,1.2,1.1c0.3,0.4,0.4,0.9,0.4,1.5c0,0.9-0.3,1.6-1,2.2
			c-0.7,0.5-1.6,0.8-2.8,0.8C38.1,95,37.2,94.7,36.5,94.2z"/>
		<path class="st0" d="M47.3,94.5c-0.6-0.3-1-0.7-1.3-1.3s-0.5-1.2-0.5-1.9v-4.8c0-0.7,0.2-1.3,0.5-1.9c0.3-0.5,0.8-1,1.3-1.3
			c0.6-0.3,1.2-0.5,2-0.5c0.7,0,1.4,0.1,2,0.4c0.6,0.3,1,0.7,1.3,1.2s0.5,1.2,0.5,1.9c0,0.1,0,0.1-0.1,0.1c0,0-0.1,0.1-0.1,0.1
			l-0.5,0c-0.1,0-0.2,0-0.2-0.1v-0.1c0-0.8-0.3-1.5-0.8-2c-0.5-0.5-1.2-0.8-2.1-0.8c-0.9,0-1.6,0.3-2.1,0.8c-0.5,0.5-0.8,1.2-0.8,2
			v4.8c0,0.8,0.3,1.5,0.8,2c0.5,0.5,1.3,0.8,2.1,0.8c0.9,0,1.6-0.3,2.1-0.8c0.5-0.5,0.8-1.2,0.8-2c0-0.1,0.1-0.2,0.2-0.2l0.5,0
			c0.1,0,0.2,0,0.2,0.1v0.1c0,0.7-0.2,1.3-0.5,1.9c-0.3,0.5-0.8,1-1.3,1.3c-0.6,0.3-1.2,0.5-2,0.5C48.5,95,47.8,94.8,47.3,94.5z"/>
		<path class="st0" d="M56.4,94.2c-0.7-0.6-1.1-1.3-1.1-2.2v-0.5c0-0.1,0-0.1,0.1-0.1c0,0,0.1-0.1,0.1-0.1H56c0.1,0,0.1,0,0.1,0.1
			c0,0,0.1,0.1,0.1,0.1v0.5c0,0.7,0.3,1.2,0.9,1.7c0.6,0.4,1.3,0.6,2.3,0.6c0.9,0,1.6-0.2,2.1-0.6c0.5-0.4,0.7-0.9,0.7-1.6
			c0-0.4-0.1-0.8-0.3-1.1c-0.2-0.3-0.5-0.6-1-0.9c-0.5-0.3-1.1-0.6-1.9-0.9c-0.9-0.4-1.5-0.7-2-0.9c-0.4-0.2-0.8-0.6-1.1-0.9
			c-0.3-0.4-0.4-0.9-0.4-1.4c0-0.9,0.3-1.6,0.9-2.1c0.6-0.5,1.5-0.7,2.6-0.7c1.2,0,2.2,0.3,2.9,0.8c0.7,0.6,1,1.3,1,2.2v0.4
			c0,0.1,0,0.1-0.1,0.1c0,0-0.1,0.1-0.1,0.1h-0.5c-0.1,0-0.1,0-0.1-0.1c0,0-0.1-0.1-0.1-0.1v-0.3c0-0.7-0.3-1.3-0.8-1.7
			C60.7,84,60,83.8,59,83.8c-0.8,0-1.5,0.2-2,0.5c-0.5,0.4-0.7,0.9-0.7,1.5c0,0.4,0.1,0.8,0.3,1.1c0.2,0.3,0.5,0.5,0.9,0.7
			c0.4,0.2,1,0.5,1.8,0.8c0.8,0.3,1.5,0.7,2,1c0.5,0.3,0.9,0.7,1.2,1.1c0.3,0.4,0.4,0.9,0.4,1.5c0,0.9-0.3,1.6-1,2.2
			c-0.7,0.5-1.6,0.8-2.8,0.8C58,95,57.1,94.7,56.4,94.2z"/>
		<path class="st0" d="M66.1,94.2c-0.7-0.6-1.1-1.3-1.1-2.2v-0.5c0-0.1,0-0.1,0.1-0.1c0,0,0.1-0.1,0.1-0.1h0.5c0.1,0,0.1,0,0.1,0.1
			c0,0,0.1,0.1,0.1,0.1v0.5c0,0.7,0.3,1.2,0.9,1.7c0.6,0.4,1.3,0.6,2.3,0.6c0.9,0,1.6-0.2,2.1-0.6c0.5-0.4,0.7-0.9,0.7-1.6
			c0-0.4-0.1-0.8-0.3-1.1c-0.2-0.3-0.5-0.6-1-0.9c-0.5-0.3-1.1-0.6-1.9-0.9c-0.9-0.4-1.5-0.7-2-0.9c-0.4-0.2-0.8-0.6-1.1-0.9
			c-0.3-0.4-0.4-0.9-0.4-1.4c0-0.9,0.3-1.6,0.9-2.1c0.6-0.5,1.5-0.7,2.6-0.7c1.2,0,2.2,0.3,2.9,0.8c0.7,0.6,1,1.3,1,2.2v0.4
			c0,0.1,0,0.1-0.1,0.1c0,0-0.1,0.1-0.1,0.1H72c-0.1,0-0.1,0-0.1-0.1c0,0-0.1-0.1-0.1-0.1v-0.3c0-0.7-0.3-1.3-0.8-1.7
			c-0.5-0.4-1.3-0.6-2.3-0.6c-0.8,0-1.5,0.2-2,0.5c-0.5,0.4-0.7,0.9-0.7,1.5c0,0.4,0.1,0.8,0.3,1.1c0.2,0.3,0.5,0.5,0.9,0.7
			c0.4,0.2,1,0.5,1.8,0.8c0.8,0.3,1.5,0.7,2,1c0.5,0.3,0.9,0.7,1.2,1.1c0.3,0.4,0.4,0.9,0.4,1.5c0,0.9-0.3,1.6-1,2.2
			C71.1,94.7,70.2,95,69,95C67.8,95,66.8,94.7,66.1,94.2z"/>
	</g>
</g>
<g>
	<path class="st1" d="M202.6,74.5c-5-0.2-10.4-0.9-15.5-3.5c-2.1-1.1-2.9-2.6-2.2-4.8c0.1-0.3,0.2-0.6,0.2-0.9
		c1.9-7,2.1-7.1,8.9-4.5c4.3,1.7,8.7,2.6,13.3,1.5c3.3-0.8,5.8-2.6,6.4-6.2c0.6-3.7-0.7-6.7-4-8.5c-2.5-1.4-5.1-2.5-7.8-3.7
		c-2.4-1.1-4.9-2.1-7.1-3.6c-6.7-4.5-10.1-10.5-8.8-18.6c1.2-7.8,6.2-12.7,13.4-15.1c7.4-2.4,14.8-1.9,22,0.9
		c3.2,1.2,3.7,2.5,2.7,5.7c-0.1,0.3-0.2,0.6-0.3,0.8c-2.1,6.2-2.1,6.2-8.2,4.2c-3.7-1.2-7.5-1.9-11.3-0.8c-2.6,0.8-4.6,2.3-5.1,5.2
		c-0.5,2.9,0.6,5.2,3,6.9c2.4,1.7,5.1,2.7,7.7,3.8c2.8,1.2,5.6,2.4,8.2,4.1c7,4.7,10.1,11.3,8.9,19.5c-1.2,8.2-6.3,13.4-14,16
		C209.9,74.1,206.5,74.4,202.6,74.5z"/>
	<path class="st1" d="M169.1,33.7c-0.2,6.2,0.3,13.6-0.4,20.9c-1.4,15.8-14.9,24.2-29.9,18.6c-1.9-0.7-2.7-1.9-2.4-3.8
		c0.1-0.5,0.1-1,0.2-1.5c1-6.3,1-6.4,7.5-5.6c8,0.9,11.3-1.7,11.4-9.9c0.2-13.3,0.1-26.6,0.1-39.9c0-6.1,0.4-6.4,6.3-6.5
		c6.9,0,7.1,0.2,7.1,7.2C169.1,19.7,169.1,26.1,169.1,33.7z"/>
</g>
<g>
	<path class="st1" d="M141.8,94.5c-0.6-0.3-1-0.7-1.3-1.2c-0.3-0.5-0.5-1.1-0.5-1.8v-0.8c0-0.1,0-0.1,0.1-0.1c0,0,0.1-0.1,0.1-0.1
		h0.5c0.1,0,0.1,0,0.1,0.1c0,0,0.1,0.1,0.1,0.1v0.8c0,0.8,0.3,1.4,0.8,1.9c0.5,0.5,1.2,0.7,2,0.7c0.8,0,1.5-0.2,2-0.7
		c0.5-0.5,0.8-1.1,0.8-1.9v-8.2c0-0.1,0-0.1,0.1-0.1c0,0,0.1-0.1,0.1-0.1h0.5c0.1,0,0.1,0,0.1,0.1c0,0,0.1,0.1,0.1,0.1v8.2
		c0,0.7-0.2,1.3-0.5,1.8c-0.3,0.5-0.7,0.9-1.3,1.2c-0.6,0.3-1.2,0.4-1.9,0.4C143,94.9,142.3,94.7,141.8,94.5z"/>
	<path class="st1" d="M155.5,87c0.5,0.5,0.8,1.2,0.8,2v5.5c0,0.1,0,0.1-0.1,0.1c0,0-0.1,0.1-0.1,0.1h-0.5c-0.1,0-0.1,0-0.1-0.1
		c0,0-0.1-0.1-0.1-0.1v-0.7c0,0,0,0,0,0c0,0,0,0-0.1,0c-0.3,0.4-0.7,0.6-1.1,0.8c-0.5,0.2-1,0.3-1.5,0.3c-0.8,0-1.4-0.2-1.9-0.6
		c-0.5-0.4-0.8-1-0.8-1.8c0-0.8,0.3-1.5,0.9-1.9c0.6-0.5,1.4-0.7,2.5-0.7h2c0,0,0.1,0,0.1-0.1v-0.7c0-0.6-0.2-1.1-0.5-1.5
		c-0.3-0.4-0.9-0.5-1.6-0.5c-0.6,0-1,0.1-1.4,0.3c-0.4,0.2-0.6,0.5-0.7,0.9c0,0.1-0.1,0.2-0.2,0.2l-0.5-0.1c-0.1,0-0.2-0.1-0.2-0.2
		c0.1-0.6,0.4-1.1,1-1.4c0.5-0.4,1.2-0.5,2-0.5C154.3,86.3,155,86.5,155.5,87z M154.6,93.6c0.5-0.3,0.8-0.8,0.8-1.4v-1.5
		c0,0,0-0.1-0.1-0.1h-1.9c-0.8,0-1.4,0.2-1.9,0.5c-0.5,0.3-0.7,0.8-0.7,1.4c0,0.5,0.2,1,0.6,1.2c0.4,0.3,0.9,0.4,1.4,0.4
		C153.5,94.1,154.1,93.9,154.6,93.6z"/>
	<path class="st1" d="M160.8,94.6l-2.7-8c0,0,0,0,0-0.1c0-0.1,0.1-0.1,0.2-0.1h0.6c0.1,0,0.2,0.1,0.2,0.2l2.3,6.9c0,0,0,0,0,0
		c0,0,0,0,0,0l2.3-6.9c0-0.1,0.1-0.2,0.2-0.2l0.6,0c0.1,0,0.1,0,0.1,0.1c0,0,0,0.1,0,0.2l-2.7,7.9c0,0.1-0.1,0.2-0.2,0.2H161
		C160.9,94.7,160.8,94.7,160.8,94.6z"/>
	<path class="st1" d="M171.4,87c0.5,0.5,0.8,1.2,0.8,2v5.5c0,0.1,0,0.1-0.1,0.1c0,0-0.1,0.1-0.1,0.1h-0.5c-0.1,0-0.1,0-0.1-0.1
		c0,0-0.1-0.1-0.1-0.1v-0.7c0,0,0,0,0,0c0,0,0,0-0.1,0c-0.3,0.4-0.7,0.6-1.1,0.8c-0.5,0.2-1,0.3-1.5,0.3c-0.8,0-1.4-0.2-1.9-0.6
		c-0.5-0.4-0.8-1-0.8-1.8c0-0.8,0.3-1.5,0.9-1.9c0.6-0.5,1.4-0.7,2.5-0.7h2c0,0,0.1,0,0.1-0.1v-0.7c0-0.6-0.2-1.1-0.5-1.5
		c-0.3-0.4-0.9-0.5-1.6-0.5c-0.6,0-1,0.1-1.4,0.3c-0.4,0.2-0.6,0.5-0.7,0.9c0,0.1-0.1,0.2-0.2,0.2l-0.5-0.1c-0.1,0-0.2-0.1-0.2-0.2
		c0.1-0.6,0.4-1.1,1-1.4c0.5-0.4,1.2-0.5,2-0.5C170.2,86.3,170.9,86.5,171.4,87z M170.6,93.6c0.5-0.3,0.8-0.8,0.8-1.4v-1.5
		c0,0,0-0.1-0.1-0.1h-1.9c-0.8,0-1.4,0.2-1.9,0.5c-0.5,0.3-0.7,0.8-0.7,1.4c0,0.5,0.2,1,0.6,1.2c0.4,0.3,0.9,0.4,1.4,0.4
		C169.4,94.1,170,93.9,170.6,93.6z"/>
	<path class="st1" d="M178.8,94.1c-0.7-0.5-1.1-1.3-1.1-2.2v-0.5c0-0.1,0-0.1,0.1-0.1c0,0,0.1-0.1,0.1-0.1h0.4c0.1,0,0.1,0,0.1,0.1
		c0,0,0.1,0.1,0.1,0.1v0.5c0,0.7,0.3,1.2,0.8,1.7c0.6,0.4,1.3,0.6,2.3,0.6c0.9,0,1.6-0.2,2.1-0.6c0.5-0.4,0.7-0.9,0.7-1.6
		c0-0.4-0.1-0.8-0.3-1.1c-0.2-0.3-0.5-0.6-1-0.9c-0.5-0.3-1.1-0.6-1.9-0.9c-0.9-0.4-1.5-0.7-2-0.9c-0.4-0.2-0.8-0.5-1.1-0.9
		c-0.3-0.4-0.4-0.8-0.4-1.4c0-0.9,0.3-1.6,0.9-2.1c0.6-0.5,1.5-0.7,2.6-0.7c1.2,0,2.2,0.3,2.8,0.8c0.7,0.6,1,1.3,1,2.2v0.3
		c0,0.1,0,0.1-0.1,0.1c0,0-0.1,0.1-0.1,0.1h-0.5c-0.1,0-0.1,0-0.1-0.1c0,0-0.1-0.1-0.1-0.1v-0.3c0-0.7-0.3-1.3-0.8-1.7
		c-0.5-0.4-1.3-0.6-2.2-0.6c-0.8,0-1.5,0.2-1.9,0.5c-0.5,0.3-0.7,0.8-0.7,1.5c0,0.4,0.1,0.8,0.3,1.1c0.2,0.3,0.5,0.5,0.9,0.7
		c0.4,0.2,1,0.5,1.8,0.8c0.8,0.3,1.5,0.6,2,1c0.5,0.3,0.9,0.7,1.2,1.1s0.4,0.9,0.4,1.5c0,0.9-0.3,1.6-1,2.2
		c-0.7,0.5-1.6,0.8-2.8,0.8C180.5,94.9,179.5,94.6,178.8,94.1z"/>
	<path class="st1" d="M188.9,94.3c-0.5-0.4-0.9-1-1.1-1.6c-0.1-0.5-0.2-1.2-0.2-2.1c0-0.8,0.1-1.5,0.2-2.1c0.2-0.7,0.5-1.2,1.1-1.6
		c0.6-0.4,1.2-0.6,2-0.6c0.8,0,1.5,0.2,2,0.6s0.9,0.9,1.1,1.5c0,0.1,0.1,0.3,0.1,0.4v0c0,0.1-0.1,0.2-0.2,0.2l-0.5,0.1h0
		c-0.1,0-0.2-0.1-0.2-0.2c0,0,0-0.1,0-0.2c-0.1-0.5-0.4-0.9-0.8-1.2c-0.4-0.3-0.9-0.5-1.5-0.5c-0.6,0-1.1,0.2-1.5,0.5
		c-0.4,0.3-0.7,0.7-0.8,1.3c-0.1,0.4-0.1,1-0.1,1.8c0,0.8,0,1.4,0.1,1.8c0.1,0.5,0.4,1,0.8,1.3c0.4,0.3,0.9,0.5,1.5,0.5
		c0.6,0,1.1-0.2,1.5-0.5c0.4-0.3,0.7-0.7,0.8-1.2l0-0.1c0-0.1,0-0.1,0.1-0.1c0,0,0.1,0,0.1,0l0.4,0c0.1,0,0.1,0,0.1,0.1
		c0,0,0.1,0.1,0,0.2l-0.1,0.3c-0.2,0.6-0.5,1.1-1.1,1.5s-1.2,0.6-2,0.6C190.1,94.9,189.4,94.7,188.9,94.3z"/>
	<path class="st1" d="M200.5,86.5c0.1,0,0.1,0.1,0.1,0.2l-0.1,0.5c0,0.1-0.1,0.2-0.2,0.1c-0.2-0.1-0.5-0.1-0.8-0.1
		c-0.6,0-1.1,0.2-1.5,0.7c-0.4,0.5-0.6,1-0.6,1.7v4.9c0,0.1,0,0.1-0.1,0.1c0,0-0.1,0.1-0.1,0.1h-0.5c-0.1,0-0.1,0-0.1-0.1
		c0,0-0.1-0.1-0.1-0.1v-8c0-0.1,0-0.1,0.1-0.1c0,0,0.1-0.1,0.1-0.1h0.5c0.1,0,0.1,0,0.1,0.1c0,0,0.1,0.1,0.1,0.1v1.1
		c0,0,0,0.1,0,0.1c0,0,0,0,0,0c0.2-0.4,0.5-0.8,0.9-1c0.4-0.2,0.8-0.4,1.3-0.4C199.9,86.3,200.2,86.4,200.5,86.5z"/>
	<path class="st1" d="M202.4,84.5c-0.1-0.1-0.2-0.3-0.2-0.5c0-0.2,0.1-0.4,0.2-0.5c0.1-0.1,0.3-0.2,0.5-0.2c0.2,0,0.4,0.1,0.5,0.2
		c0.1,0.1,0.2,0.3,0.2,0.5c0,0.2-0.1,0.4-0.2,0.5c-0.1,0.1-0.3,0.2-0.5,0.2C202.7,84.7,202.5,84.6,202.4,84.5z M202.6,94.7
		c0,0-0.1-0.1-0.1-0.1v-8c0-0.1,0-0.1,0.1-0.1c0,0,0.1-0.1,0.1-0.1h0.5c0.1,0,0.1,0,0.1,0.1s0.1,0.1,0.1,0.1v8c0,0.1,0,0.1-0.1,0.1
		s-0.1,0.1-0.1,0.1h-0.5C202.7,94.7,202.6,94.7,202.6,94.7z"/>
	<path class="st1" d="M212.9,90.5c0,0.5,0,0.9,0,1.2c0,0.3-0.1,0.6-0.1,0.9c-0.2,0.7-0.5,1.2-1.1,1.6s-1.2,0.6-1.9,0.6
		c-0.5,0-0.9-0.1-1.3-0.3c-0.4-0.2-0.7-0.5-0.9-0.8c0,0,0,0,0,0c0,0,0,0,0,0v4c0,0.1,0,0.1-0.1,0.1c0,0-0.1,0.1-0.1,0.1h-0.5
		c-0.1,0-0.1,0-0.1-0.1c0,0-0.1-0.1-0.1-0.1V86.6c0-0.1,0-0.1,0.1-0.1s0.1-0.1,0.1-0.1h0.5c0.1,0,0.1,0,0.1,0.1c0,0,0.1,0.1,0.1,0.1
		v0.8c0,0,0,0.1,0,0.1c0,0,0,0,0.1,0c0.2-0.4,0.6-0.6,0.9-0.8c0.4-0.2,0.8-0.3,1.3-0.3c0.8,0,1.4,0.2,1.9,0.6
		c0.5,0.4,0.9,0.9,1.1,1.6C212.8,88.9,212.9,89.6,212.9,90.5z M211.9,91.8c0-0.3,0.1-0.7,0.1-1.3c0-0.6,0-1,0-1.2
		c0-0.3-0.1-0.5-0.2-0.8c-0.1-0.5-0.4-0.8-0.8-1.1c-0.4-0.3-0.9-0.4-1.4-0.4c-0.5,0-1,0.1-1.3,0.4c-0.3,0.3-0.6,0.7-0.7,1.1
		c-0.1,0.2-0.1,0.4-0.2,0.7c0,0.3,0,0.7,0,1.3c0,0.6,0,1,0,1.3c0,0.3,0.1,0.5,0.2,0.7c0.1,0.5,0.3,0.8,0.7,1.1
		c0.4,0.3,0.8,0.4,1.3,0.4c0.5,0,1-0.1,1.3-0.4c0.4-0.3,0.6-0.6,0.8-1.1C211.8,92.4,211.9,92.1,211.9,91.8z"/>
	<path class="st1" d="M218.8,87.1c0,0-0.1,0.1-0.1,0.1h-1.9c0,0-0.1,0-0.1,0.1v5.2c0,0.6,0.1,1,0.4,1.2c0.3,0.2,0.7,0.3,1.2,0.3h0.3
		c0.1,0,0.1,0,0.1,0.1c0,0,0.1,0.1,0.1,0.1v0.4c0,0.1-0.1,0.2-0.2,0.2l-0.5,0c-0.8,0-1.3-0.1-1.7-0.4s-0.6-0.8-0.6-1.6v-5.5
		c0,0,0-0.1-0.1-0.1h-1c-0.1,0-0.1,0-0.1-0.1c0,0-0.1-0.1-0.1-0.1v-0.3c0-0.1,0-0.1,0.1-0.1c0,0,0.1-0.1,0.1-0.1h1
		c0,0,0.1,0,0.1-0.1v-1.9c0-0.1,0-0.1,0.1-0.1c0,0,0.1-0.1,0.1-0.1h0.5c0.1,0,0.1,0,0.1,0.1c0,0,0.1,0.1,0.1,0.1v1.9
		c0,0,0,0.1,0.1,0.1h1.9c0.1,0,0.1,0,0.1,0.1c0,0,0.1,0.1,0.1,0.1v0.3C218.9,87,218.8,87,218.8,87.1z"/>
</g>
<g>
	<path class="st2" d="M281,39.3c0.4-0.8,0.9-1.4,1.6-2.1c5.5-5.5,11.1-11,16.6-16.6c0.8-0.8,1.8-1.2,3-0.9c1.1,0.2,1.9,1.1,2.1,2.2
		c0.3,1.2-0.2,2.1-1,2.9c-4.8,4.8-9.6,9.6-14.5,14.4c-0.6,0.6-0.6,0.9,0,1.4c4.8,4.8,9.7,9.6,14.5,14.4c0.8,0.8,1.3,1.8,1,2.9
		c-0.5,2.3-3.2,3-5,1.3c-2.5-2.5-5.1-5.1-7.6-7.6c-3-3-6-6-9.1-9c-0.6-0.6-1.2-1.3-1.6-2.1V39.3z"/>
	<path class="st2" d="M374.1,40.7c-0.4,0.8-0.9,1.4-1.6,2.1c-5.5,5.5-11.1,11-16.6,16.6c-1.7,1.7-4.4,1.1-5-1.2
		c-0.3-1.2,0.1-2.2,1-3c4.8-4.8,9.7-9.7,14.5-14.5c0.5-0.5,0.5-0.8,0-1.3c-4.9-4.8-9.7-9.7-14.5-14.5c-1.4-1.4-1.5-3.1-0.2-4.3
		c1.2-1.2,3-1.2,4.3,0.2c5.7,5.7,11.3,11.3,17,16.9c0.4,0.5,0.8,1,1.1,1.6L374.1,40.7z"/>
	<path class="st2" d="M310.1,71.9c0.1-0.6,0.2-1.1,0.5-1.7c9.5-21,19-41.9,28.6-62.9c0.9-1.9,1.9-2.6,3.4-2.3
		c1.5,0.2,2.6,1.6,2.4,3.2c0,0.1-0.1,0.3-0.1,0.4c-0.5,1.6-1.3,3-1.9,4.5C334,32.8,325,52.6,316,72.4c-0.2,0.5-0.5,1-0.8,1.5
		c-0.7,1-2,1.4-3.2,1C310.8,74.4,310,73.3,310.1,71.9z"/>
</g>
<g>
	<path class="st2" d="M313.2,80.1c0.1-0.1,0.1-0.1,0.2-0.1h0.6c0.1,0,0.1,0,0.2,0.1c0.1,0.1,0.1,0.1,0.1,0.2v14.5
		c0,0.1,0,0.1-0.1,0.2c-0.1,0.1-0.1,0.1-0.2,0.1h-0.6c-0.1,0-0.1,0-0.2-0.1c-0.1-0.1-0.1-0.1-0.1-0.2V88c0-0.1,0-0.1-0.1-0.1h-7.4
		c-0.1,0-0.1,0-0.1,0.1v6.7c0,0.1,0,0.1-0.1,0.2c-0.1,0.1-0.1,0.1-0.2,0.1h-0.6c-0.1,0-0.1,0-0.2-0.1c-0.1-0.1-0.1-0.1-0.1-0.2V80.2
		c0-0.1,0-0.1,0.1-0.2c0.1-0.1,0.1-0.1,0.2-0.1h0.6c0.1,0,0.1,0,0.2,0.1c0.1,0.1,0.1,0.1,0.1,0.2v6.6c0,0.1,0,0.1,0.1,0.1h7.4
		c0.1,0,0.1,0,0.1-0.1v-6.6C313.2,80.2,313.2,80.1,313.2,80.1z"/>
	<path class="st2" d="M327.5,80.1c0.1,0.1,0.1,0.1,0.1,0.2v0.5c0,0.1,0,0.1-0.1,0.2c-0.1,0.1-0.1,0.1-0.2,0.1h-4.3
		c-0.1,0-0.1,0-0.1,0.1v13.7c0,0.1,0,0.1-0.1,0.2c-0.1,0.1-0.1,0.1-0.2,0.1h-0.6c-0.1,0-0.1,0-0.2-0.1c-0.1-0.1-0.1-0.1-0.1-0.2
		V81.1c0-0.1,0-0.1-0.1-0.1h-4c-0.1,0-0.1,0-0.2-0.1c-0.1-0.1-0.1-0.1-0.1-0.2v-0.5c0-0.1,0-0.1,0.1-0.2c0.1-0.1,0.1-0.1,0.2-0.1
		h9.6C327.4,80,327.5,80,327.5,80.1z"/>
	<path class="st2" d="M330.9,94.9c-0.1-0.1-0.1-0.1-0.1-0.2V80.2c0-0.1,0-0.1,0.1-0.2c0.1-0.1,0.1-0.1,0.2-0.1h0.7
		c0.1,0,0.2,0.1,0.3,0.2l4.1,6.5c0,0,0,0,0.1,0c0,0,0.1,0,0.1,0l4.2-6.5c0.1-0.1,0.2-0.2,0.3-0.2h0.7c0.1,0,0.1,0,0.2,0.1
		c0.1,0.1,0.1,0.1,0.1,0.2v14.5c0,0.1,0,0.1-0.1,0.2c-0.1,0.1-0.1,0.1-0.2,0.1h-0.6c-0.1,0-0.1,0-0.2-0.1c-0.1-0.1-0.1-0.1-0.1-0.2
		V82.2c0,0,0-0.1,0-0.1c0,0-0.1,0-0.1,0.1l-3.7,5.9c-0.1,0.1-0.2,0.2-0.3,0.2h-0.3c-0.1,0-0.2-0.1-0.3-0.2l-3.7-5.9
		c0,0,0-0.1-0.1-0.1c0,0,0,0,0,0.1v12.6c0,0.1,0,0.1-0.1,0.2c-0.1,0.1-0.1,0.1-0.2,0.1h-0.6C331,95,330.9,95,330.9,94.9z"/>
	<path class="st2" d="M346.2,94.9c-0.1-0.1-0.1-0.1-0.1-0.2V80.2c0-0.1,0-0.1,0.1-0.2c0.1-0.1,0.1-0.1,0.2-0.1h0.6
		c0.1,0,0.1,0,0.2,0.1c0.1,0.1,0.1,0.1,0.1,0.2v13.7c0,0.1,0,0.1,0.1,0.1h7.7c0.1,0,0.1,0,0.2,0.1c0.1,0.1,0.1,0.1,0.1,0.2v0.5
		c0,0.1,0,0.1-0.1,0.2c-0.1,0.1-0.1,0.1-0.2,0.1h-8.6C346.3,95,346.2,95,346.2,94.9z"/>
</g>
<g>
	<path class="st3" d="M430.4,75l2.8-21.1h-8.8v-6.4h9.8l2.1-15.6h-9.3v-6.3h10.2L440,5h6.2l-2.7,20.6h11.2L457.5,5h6.4l-2.7,20.6
		h8.8v6.4h-9.8l-1.9,15.6h9.3v6.4h-10.2L454.5,75H448l2.8-21.1h-11.2L436.8,75L430.4,75L430.4,75z M451.8,47.5l2-15.6h-11.2
		l-2.1,15.6H451.8z"/>
	<path class="st3" d="M426.7,93.9c-1-0.7-1.6-1.7-1.9-2.9c-0.3-0.9-0.4-2.1-0.4-3.6c0-1.4,0.1-2.6,0.4-3.6c0.3-1.2,1-2.1,1.9-2.8
		c1-0.7,2.1-1.1,3.5-1.1c1.4,0,2.5,0.3,3.5,1c1,0.7,1.6,1.6,1.9,2.6c0.1,0.2,0.1,0.5,0.2,0.8v0.1c0,0.2-0.1,0.3-0.3,0.3l-0.8,0.1
		h-0.1c-0.2,0-0.3-0.1-0.3-0.3c0-0.1,0-0.2-0.1-0.3c-0.2-0.8-0.6-1.5-1.4-2s-1.6-0.8-2.7-0.8c-1.1,0-1.9,0.3-2.6,0.8
		c-0.7,0.5-1.2,1.3-1.3,2.2c-0.2,0.7-0.3,1.8-0.3,3.1c0,1.4,0.1,2.4,0.3,3.1c0.2,1,0.6,1.7,1.3,2.3c0.7,0.5,1.6,0.8,2.6,0.8
		c1,0,1.9-0.3,2.7-0.8s1.2-1.2,1.3-2.1l0-0.1c0-0.1,0.1-0.2,0.1-0.2c0.1-0.1,0.2-0.1,0.3-0.1l0.8,0.1c0.1,0,0.2,0.1,0.3,0.1
		c0.1,0.1,0.1,0.1,0.1,0.3l-0.1,0.5c-0.3,1.1-0.9,2-1.9,2.7c-1,0.7-2.2,1-3.5,1C428.8,95,427.6,94.7,426.7,93.9z"/>
	<path class="st3" d="M441.5,94.4c-0.8-0.3-1.4-0.8-1.9-1.4c-0.4-0.6-0.7-1.2-0.7-1.9v-0.3c0-0.1,0-0.2,0.1-0.2
		c0.1-0.1,0.1-0.1,0.2-0.1h0.8c0.1,0,0.2,0,0.3,0.1c0.1,0.1,0.1,0.1,0.1,0.2V91c0,0.7,0.3,1.3,1.1,1.8c0.7,0.5,1.6,0.8,2.7,0.8
		c1.1,0,2-0.3,2.7-0.8c0.7-0.5,1-1.2,1-1.9c0-0.5-0.2-1-0.5-1.3c-0.3-0.3-0.8-0.6-1.2-0.8c-0.5-0.2-1.2-0.4-2.1-0.7
		c-1.1-0.3-1.9-0.6-2.6-0.9s-1.2-0.7-1.7-1.2c-0.5-0.5-0.7-1.2-0.7-2c0-1.2,0.5-2.1,1.4-2.8c0.9-0.7,2.2-1,3.7-1
		c1,0,1.9,0.2,2.7,0.5c0.8,0.3,1.4,0.8,1.8,1.4c0.4,0.6,0.7,1.2,0.7,2v0c0,0.1,0,0.2-0.1,0.3c-0.1,0.1-0.1,0.1-0.2,0.1h-0.8
		c-0.1,0-0.2,0-0.3-0.1c-0.1,0-0.1-0.1-0.1-0.1V84c0-0.7-0.3-1.4-1-1.8c-0.7-0.5-1.6-0.8-2.7-0.8c-1.1,0-1.9,0.2-2.6,0.7
		c-0.7,0.5-1,1.1-1,1.8c0,0.7,0.3,1.3,0.9,1.6c0.6,0.4,1.6,0.8,2.9,1.1c1.1,0.3,2,0.6,2.7,0.9c0.7,0.3,1.2,0.7,1.7,1.2
		c0.5,0.5,0.7,1.2,0.7,2.1c0,1.2-0.5,2.2-1.4,2.9s-2.2,1.1-3.8,1.1C443.2,94.9,442.3,94.7,441.5,94.4z"/>
	<path class="st3" d="M454.8,94.4c-0.8-0.3-1.4-0.8-1.9-1.4c-0.4-0.6-0.7-1.2-0.7-1.9v-0.3c0-0.1,0-0.2,0.1-0.2
		c0.1-0.1,0.1-0.1,0.2-0.1h0.8c0.1,0,0.2,0,0.3,0.1c0.1,0.1,0.1,0.1,0.1,0.2V91c0,0.7,0.3,1.3,1.1,1.8c0.7,0.5,1.6,0.8,2.7,0.8
		c1.1,0,2-0.3,2.7-0.8c0.7-0.5,1-1.2,1-1.9c0-0.5-0.2-1-0.5-1.3c-0.3-0.3-0.8-0.6-1.2-0.8c-0.5-0.2-1.2-0.4-2.1-0.7
		c-1.1-0.3-1.9-0.6-2.6-0.9c-0.7-0.3-1.2-0.7-1.7-1.2c-0.5-0.5-0.7-1.2-0.7-2c0-1.2,0.5-2.1,1.4-2.8c0.9-0.7,2.2-1,3.7-1
		c1,0,1.9,0.2,2.7,0.5c0.8,0.3,1.4,0.8,1.8,1.4c0.4,0.6,0.7,1.2,0.7,2v0c0,0.1,0,0.2-0.1,0.3c-0.1,0.1-0.1,0.1-0.2,0.1h-0.8
		c-0.1,0-0.2,0-0.3-0.1c-0.1,0-0.1-0.1-0.1-0.1V84c0-0.7-0.3-1.4-1-1.8c-0.7-0.5-1.6-0.8-2.7-0.8c-1.1,0-1.9,0.2-2.6,0.7
		c-0.7,0.5-1,1.1-1,1.8c0,0.7,0.3,1.3,0.9,1.6c0.6,0.4,1.6,0.8,2.9,1.1c1.1,0.3,2,0.6,2.7,0.9c0.7,0.3,1.2,0.7,1.7,1.2
		c0.5,0.5,0.7,1.2,0.7,2.1c0,1.2-0.5,2.2-1.4,2.9c-1,0.8-2.2,1.1-3.8,1.1C456.5,94.9,455.6,94.7,454.8,94.4z"/>
</g>
</svg>
