<?xml version="1.0" encoding="utf-8"?>
<!-- Generator: Adobe Illustrator 22.0.1, SVG Export Plug-In . SVG Version: 6.00 Build 0)  -->
<svg version="1.1" id="Calque_1" xmlns="http://www.w3.org/2000/svg" xmlns:xlink="http://www.w3.org/1999/xlink" x="0px" y="0px"
	 viewBox="0 0 500 100" style="enable-background:new 0 0 500 100;" xml:space="preserve">
<style type="text/css">
	.st0{fill:#A074C4;}
	.st1{fill:#FFFFFF;}
	.st2{fill:#3295D1;}
</style>
<g>
	<path class="st0" d="M134.2,30.2c0.5,2.9,1.2,5.7,3,8.1c1,1.4,2.4,1.9,4.1,1.9c7.2,0.2,12.5-2.9,15.9-9.2c3.2-5.8,3.2-12,1.7-18.3
		c-0.8-3.3-0.7-3.4,2.6-4.1c7.2-1.4,14.4-1.5,21.5,0.6c10.4,3,17.7,9.6,22.2,19.3c1.3,2.7,2.4,5.4,2.7,8.4c0.1,0.8,0.5,1.9-0.4,2.3
		c-0.8,0.4-1.3-0.7-1.9-1.1c-1-0.8-1.6-1.8-2.4-2.8c-0.2-0.3-0.4-0.7-0.8-0.6c-0.5,0.1-0.5,0.6-0.6,0.9c-1.2,4.3-2.6,8.7-5.8,11.9
		c-3.2,3.2-2.7,6.9-2.4,10.6c0.3,3.8,0.9,7.5,1.3,11.3c0.3,2.3-0.5,3.5-2.6,4.4c-2.3,0.9-4.6,1.3-7.1,1.2c-1.5,0-2.9-0.1-4.4,0
		c-0.9,0-1.2-0.3-1.2-1.2c0-0.8-0.1-1.6-0.2-2.4c0-1.3-0.6-2.4-1.7-3.2c-0.5-0.3-0.5-0.7-0.4-1.2c0.4-1.8,0.9-3.6,1.2-5.4
		c0.4-1.9,0.1-3.7-1.4-5.1c-1.1-1.1-2.2-1.3-3.6-0.6c-3.8,2-7.8,2.2-11.8,0.8c-2.5-0.9-3.6-0.4-4.9,2c-1.4,2.7-1.3,5.5-0.9,8.3
		c0.2,1.8,0.5,3.5,0.7,5.3c0.2,1-0.2,1.6-1.2,1.9c-3.3,0.9-6.6,1-10,0.8c-0.5,0-0.8-0.3-0.8-0.8c0-0.9-0.2-1.9-0.3-2.8
		c-0.1-1.4-0.8-2.5-2-3.2c-0.7-0.4-0.7-0.7-0.5-1.4c1.3-4.2,1-8.3-0.8-12.2c-0.4-0.9-1-1.7-1.9-2.1c-3-1.5-5.8-3.4-9.1-4.3
		c-0.6-0.2-1.2-0.2-1.8,0.1c-1.4,0.6-1.8,1.7-1,3c0.8,1.5,2,2.8,3.1,4.1c0.9,1.1,1.9,2.2,2.7,3.4c1,1.5,1.2,3.2,0.9,4.9
		c-0.5,2.9-2,5.4-4.1,7.4c-0.6,0.6-1.3,0.8-2.2,0.6c-1.6-0.3-3-0.9-4.1-2.2c-1.1-1.2-0.9-2.4,0.3-3.4c0.3-0.2,0.7-0.4,1-0.7
		c2.1-1.4,2.3-3.5,0.5-5.2c-2-1.8-3.9-3.8-6-5.4c-6.1-4.6-9.4-10.7-9.7-18.4c-0.4-8.4,1.8-16,6.5-22.9c1.9-2.8,4.4-4.6,7.6-5.5
		c5.5-1.5,11-3.1,16.8-3c2.5,0,4.9,0.4,7.2,1.3c3.5,1.4,5.9,3.8,7.1,7.4c2.1,6.7,2,13.1-2.5,18.9c-2.2,2.9-5.1,4.8-8.7,5.7
		c-2.8,0.7-4.3,0.2-5.9-2.2c-1.2-1.8-2.3-3.8-3.5-5.7C134.5,30.3,134.5,30.2,134.2,30.2z"/>
	<path class="st1" d="M117.7,51.8c-1-0.2-2.2,0-2.7-1c-0.6-1.1,0.5-1.9,1.1-2.6c1-1.3,2.1-2.5,3.2-3.7c0.9-1.1,2-1.1,3-0.2
		c2.4,2.2,1.9,5.5-1.1,6.8C120.1,51.6,118.9,51.7,117.7,51.8z"/>
	<path class="st1" d="M120.8,31.5c1.2,0,2.1,0.9,2.1,2.1c0,1.2-1.1,2.2-2.2,2.2c-1.1,0-2.1-1-2.1-2.2
		C118.6,32.4,119.5,31.5,120.8,31.5z"/>
</g>
<image style="overflow:visible;" width="3400" height="1365" xlink:href="6B1B04E6.jpg"  transform="matrix(7.326008e-02 0 0 7.326008e-02 -1444 6.5)">
</image>
<g>
	<path class="st2" d="M389.8,42.6c-0.1,3.9-0.1,10.3-0.1,16.6c0,1.9-0.6,3.7-1.6,5.3c-1.4,2.3-3.4,4.1-5.7,5.5
		c-3.2,2.1-6.8,3.4-10.5,4.3c-5.1,1.2-10.4,1.6-15.6,1.3c-4.9-0.3-9.8-1.2-14.4-3c-2.7-1.1-5.3-2.5-7.6-4.4c-1.7-1.5-3.1-3.2-4-5.3
		c-0.5-1.2-0.7-2.5-0.7-3.8c0-12.1,0-24.2,0-36.3c0-1.6,0.1-3.1,0.6-4.6c0.9-2.3,2.4-4.1,4.2-5.7c2.6-2.2,5.5-3.7,8.7-4.8
		c3.2-1.1,6.5-1.8,9.8-2.3c3-0.4,6-0.5,9-0.4c5.6,0.2,11.2,1.2,16.4,3.4c2.7,1.1,5.3,2.6,7.5,4.6c1.9,1.7,3.3,3.7,3.9,6.2
		c0.2,0.8,0.3,1.6,0.3,2.5C389.9,27.9,389.9,34,389.8,42.6z"/>
	<path class="st1" d="M359.5,9.2c5.2,0,9.9,0.6,14.6,2.1c2.5,0.8,4.8,1.8,7,3.3c1.1,0.7,2.1,1.6,3,2.6c2.4,2.9,2.3,6.1-0.2,9
		c-1.6,1.8-3.5,3-5.7,4.1c-3.3,1.6-6.9,2.5-10.5,3.1c-3.5,0.6-7,0.7-10.5,0.5c-5.6-0.3-11-1.3-16.1-3.8c-1.9-0.9-3.7-2.1-5.2-3.7
		c-0.5-0.5-0.9-1.1-1.3-1.8c-1.2-2.1-1.1-4.2,0.1-6.3c0.8-1.4,2-2.6,3.4-3.5c2.2-1.6,4.7-2.7,7.3-3.5c3.3-1.1,6.7-1.7,10.1-2
		C357,9.3,358.4,9.3,359.5,9.2z"/>
	<path class="st1" d="M385.5,41.5c0.1,0.3,0.1,0.5,0.1,0.7c0,2.6,0,5.2,0,7.8c0,0.4-0.1,0.8-0.4,1.1c-1.4,1.8-3.1,3.1-5.1,4.1
		c-3.1,1.7-6.4,2.8-9.8,3.5c-4.5,1-9.1,1.3-13.7,1c-5-0.3-10-1.3-14.6-3.3c-2.4-1.1-4.7-2.4-6.6-4.3c-0.1-0.1-0.3-0.3-0.4-0.4
		c-0.9-0.9-1.4-2-1.3-3.3c0.1-2.1,0-4.3,0-6.4c0-0.2-0.1-0.5,0.1-0.7c0.1,0,0.2,0.1,0.3,0.1c2.6,2.5,5.7,4.2,9.1,5.4
		c3.1,1.1,6.3,1.8,9.5,2.3c3.3,0.4,6.5,0.5,9.8,0.4c5.7-0.3,11.2-1.3,16.4-3.6C381.3,44.8,383.5,43.4,385.5,41.5z"/>
	<path class="st1" d="M385.6,30.3c0,2.5,0,4.9,0,7.4c0,0.3-0.2,0.6-0.3,0.8c-1,1.3-2.1,2.3-3.4,3.3c-2.9,2-6.1,3.2-9.4,4.1
		c-3.2,0.9-6.4,1.3-9.7,1.5c-6,0.3-11.8-0.3-17.5-2.1c-2.6-0.8-5-1.9-7.3-3.4c-1.5-1-2.8-2.2-3.8-3.6c-0.3-0.4-0.4-0.7-0.4-1.2
		c0-2,0-4,0-6c0-0.2-0.1-0.5,0.2-0.7c0.2-0.1,0.4,0.2,0.5,0.3c2.8,2.4,6.1,3.9,9.6,5.1c3.4,1.1,6.9,1.8,10.4,2.1
		c2.4,0.2,4.8,0.3,7.2,0.2c5.5-0.2,10.9-1.1,16.1-3.2c2.8-1.1,5.3-2.5,7.6-4.5C385.5,30.4,385.6,30.4,385.6,30.3z"/>
	<path class="st1" d="M385.4,54.3c0,0.2,0,0.5,0,0.7c0,1.3,0,2.5,0,3.8c0.1,1.8-0.6,3.2-1.6,4.6c-1.2,1.5-2.7,2.6-4.4,3.6
		c-2.8,1.6-5.9,2.7-9.1,3.4c-4.9,1.1-9.8,1.4-14.8,1c-4.7-0.4-9.2-1.3-13.5-3.2c-2.3-1-4.4-2.3-6.2-4.1c-1.1-1.2-1.9-2.5-2.1-4.2
		c0-0.2,0-0.4,0-0.7c0-1.6,0-3.2,0-4.8c0-0.2,0-0.3,0-0.5c0.2,0,0.2,0,0.3,0.1c2.3,2.2,5,3.8,7.9,5c3.3,1.3,6.7,2.2,10.2,2.7
		c2.9,0.4,5.8,0.6,8.8,0.5c5.8-0.1,11.4-1,16.8-3.2c2.7-1.1,5.2-2.5,7.4-4.5C385.2,54.4,385.2,54.3,385.4,54.3z"/>
</g>
<g>
	<g>
		<path class="st0" d="M149.5,81.1c0.7,0.7,1.1,1.7,1.1,3c0,1.2-0.4,2.2-1.1,2.9c-0.7,0.7-1.7,1.1-3,1.1H142c-0.1,0-0.1,0-0.1,0.1
			v6.5c0,0.1,0,0.1-0.1,0.2s-0.1,0.1-0.2,0.1h-0.6c-0.1,0-0.1,0-0.2-0.1c-0.1-0.1-0.1-0.1-0.1-0.2V80.3c0-0.1,0-0.1,0.1-0.2
			c0-0.1,0.1-0.1,0.2-0.1h5.4C147.7,80,148.7,80.4,149.5,81.1z M148.6,86.3c0.5-0.6,0.8-1.3,0.8-2.2c0-0.9-0.3-1.7-0.8-2.2
			c-0.5-0.6-1.3-0.8-2.2-0.8H142c-0.1,0-0.1,0-0.1,0.1v6c0,0.1,0,0.1,0.1,0.1h4.4C147.3,87.2,148.1,86.9,148.6,86.3z"/>
		<path class="st0" d="M162.3,80.1c0-0.1,0.1-0.1,0.2-0.1h0.6c0.1,0,0.1,0,0.2,0.1c0,0.1,0.1,0.1,0.1,0.2v14.4c0,0.1,0,0.1-0.1,0.2
			c-0.1,0.1-0.1,0.1-0.2,0.1h-0.6c-0.1,0-0.1,0-0.2-0.1c-0.1-0.1-0.1-0.1-0.1-0.2v-6.7c0-0.1,0-0.1-0.1-0.1h-7.4
			c-0.1,0-0.1,0-0.1,0.1v6.7c0,0.1,0,0.1-0.1,0.2c-0.1,0.1-0.1,0.1-0.2,0.1h-0.6c-0.1,0-0.1,0-0.2-0.1c-0.1-0.1-0.1-0.1-0.1-0.2
			V80.3c0-0.1,0-0.1,0.1-0.2c0-0.1,0.1-0.1,0.2-0.1h0.6c0.1,0,0.1,0,0.2,0.1c0.1,0.1,0.1,0.1,0.1,0.2v6.6c0,0.1,0,0.1,0.1,0.1h7.4
			c0.1,0,0.1,0,0.1-0.1v-6.6C162.2,80.2,162.3,80.2,162.3,80.1z"/>
		<path class="st0" d="M176.2,81.1c0.7,0.7,1.1,1.7,1.1,3c0,1.2-0.4,2.2-1.1,2.9c-0.7,0.7-1.7,1.1-3,1.1h-4.4c-0.1,0-0.1,0-0.1,0.1
			v6.5c0,0.1,0,0.1-0.1,0.2s-0.1,0.1-0.2,0.1h-0.6c-0.1,0-0.1,0-0.2-0.1c-0.1-0.1-0.1-0.1-0.1-0.2V80.3c0-0.1,0-0.1,0.1-0.2
			c0-0.1,0.1-0.1,0.2-0.1h5.4C174.5,80,175.5,80.4,176.2,81.1z M175.3,86.3c0.5-0.6,0.8-1.3,0.8-2.2c0-0.9-0.3-1.7-0.8-2.2
			c-0.5-0.6-1.3-0.8-2.2-0.8h-4.4c-0.1,0-0.1,0-0.1,0.1v6c0,0.1,0,0.1,0.1,0.1h4.4C174.1,87.2,174.8,86.9,175.3,86.3z"/>
	</g>
</g>
<g>
	<path class="st2" d="M346.2,92.1c-0.8-0.6-1.1-1.4-1.1-2.4v-0.6c0-0.1,0-0.1,0.1-0.2c0,0,0.1-0.1,0.2-0.1h0.5c0.1,0,0.1,0,0.2,0.1
		c0,0,0.1,0.1,0.1,0.2v0.5c0,0.7,0.3,1.4,0.9,1.8c0.6,0.5,1.4,0.7,2.5,0.7c1,0,1.8-0.2,2.3-0.6c0.5-0.4,0.8-1,0.8-1.7
		c0-0.4-0.1-0.8-0.3-1.2c-0.2-0.3-0.6-0.6-1.1-0.9c-0.5-0.3-1.2-0.6-2.1-1c-0.9-0.4-1.7-0.7-2.1-1c-0.5-0.3-0.9-0.6-1.2-1
		c-0.3-0.4-0.4-0.9-0.4-1.6c0-1,0.3-1.8,1-2.3c0.7-0.5,1.6-0.8,2.8-0.8c1.3,0,2.4,0.3,3.1,0.9c0.7,0.6,1.1,1.4,1.1,2.4v0.4
		c0,0.1,0,0.1-0.1,0.2c0,0-0.1,0.1-0.2,0.1h-0.5c-0.1,0-0.1,0-0.2-0.1c0,0-0.1-0.1-0.1-0.2v-0.3c0-0.8-0.3-1.4-0.9-1.8
		c-0.6-0.5-1.4-0.7-2.4-0.7c-0.9,0-1.6,0.2-2.1,0.6c-0.5,0.4-0.7,0.9-0.7,1.6c0,0.5,0.1,0.9,0.3,1.2c0.2,0.3,0.6,0.6,1,0.8
		c0.4,0.2,1.1,0.5,2,0.9c0.9,0.4,1.6,0.7,2.2,1c0.5,0.3,1,0.7,1.3,1.2c0.3,0.4,0.5,1,0.5,1.6c0,1-0.4,1.8-1.1,2.4
		c-0.7,0.6-1.7,0.9-3,0.9S347,92.7,346.2,92.1z"/>
	<path class="st2" d="M361.8,80.5c0.6,0.3,1.1,0.8,1.4,1.4s0.5,1.3,0.5,2.1V89c0,1.1-0.3,2-1,2.7c-0.6,0.7-1.5,1.1-2.5,1.2
		c0,0-0.1,0-0.1,0.1v1.8c0,0.1,0,0.1-0.1,0.2c0,0-0.1,0.1-0.2,0.1h-0.5c-0.1,0-0.1,0-0.2-0.1c0,0-0.1-0.1-0.1-0.2V93
		c0,0,0-0.1-0.1-0.1c-1.1-0.1-1.9-0.5-2.5-1.2c-0.6-0.7-0.9-1.6-0.9-2.7V84c0-0.8,0.2-1.5,0.5-2.1c0.3-0.6,0.8-1.1,1.4-1.4
		c0.6-0.3,1.3-0.5,2.1-0.5S361.2,80.2,361.8,80.5z M362.8,83.9c0-0.9-0.3-1.7-0.8-2.2c-0.6-0.6-1.3-0.8-2.2-0.8
		c-0.9,0-1.7,0.3-2.2,0.8c-0.6,0.6-0.9,1.3-0.9,2.2V89c0,0.9,0.3,1.7,0.9,2.2c0.6,0.6,1.3,0.9,2.2,0.9c0.9,0,1.7-0.3,2.2-0.9
		c0.6-0.6,0.8-1.3,0.8-2.2V83.9z"/>
	<path class="st2" d="M366.8,92.8c0,0-0.1-0.1-0.1-0.2V80.4c0-0.1,0-0.1,0.1-0.2c0,0,0.1-0.1,0.2-0.1h0.5c0.1,0,0.1,0,0.2,0.1
		c0,0,0.1,0.1,0.1,0.2v11.5c0,0,0,0.1,0.1,0.1h6.5c0.1,0,0.1,0,0.2,0.1c0,0,0.1,0.1,0.1,0.2v0.4c0,0.1,0,0.1-0.1,0.2
		s-0.1,0.1-0.2,0.1H367C366.9,92.8,366.9,92.8,366.8,92.8z"/>
</g>
</svg>
