<?xml version="1.0" encoding="utf-8"?>
<!-- Generator: Adobe Illustrator 22.0.1, SVG Export Plug-In . SVG Version: 6.00 Build 0)  -->
<svg version="1.1" id="Calque_1" xmlns="http://www.w3.org/2000/svg" xmlns:xlink="http://www.w3.org/1999/xlink" x="0px" y="0px"
	 viewBox="0 0 500 100" style="enable-background:new 0 0 500 100;" xml:space="preserve">
<style type="text/css">
	.st0{fill:#ED1B24;}
	.st1{fill:#2B2B2B;}
</style>
<g>
	<g>
		<path class="st0" d="M110,39.8c0-11.2,0-22.4,0-33.6c0-1.1,0.1-1.2,1.2-1.2c9.3,0,18.6,0,27.9,0c1.2,0,1.3,0.2,0.8,1.3
			c-1.3,3-2.5,5.9-3.8,8.9c-1.3,3-2.6,6-3.8,9c-1.4,3.3-2.8,6.6-4.2,9.8c-1.2,2.8-2.5,5.7-3.7,8.5c-1.4,3.2-2.7,6.5-4.1,9.7
			c-1.3,3.1-2.6,6.1-3.9,9.1c-1.2,2.8-2.3,5.6-3.5,8.4c-0.6,1.4-1.3,2.7-1.7,4.2c-0.1,0.4-0.4,0.5-0.8,0.5c-0.4-0.1-0.5-0.3-0.6-0.7
			c0-0.3,0-0.5,0-0.8C110,61.9,110,50.8,110,39.8C110,39.8,110,39.8,110,39.8z"/>
		<path class="st0" d="M190.8,39.5c0,10.9,0,21.9,0,32.8c0,0.6,0,1.1-0.1,1.6c0,0.2-0.1,0.5-0.3,0.5c-0.3,0.1-0.4-0.1-0.6-0.3
			c-0.5-0.5-0.6-1.3-0.8-1.9c-1-2.5-2.1-4.9-3.1-7.3c-1.2-2.9-2.4-5.8-3.6-8.7c-1.2-2.8-2.4-5.5-3.6-8.3c-1.5-3.5-2.9-7.1-4.4-10.6
			c-1.3-3.1-2.6-6.2-4-9.3c-1.4-3.3-2.8-6.6-4.2-9.8c-1.4-3.3-2.8-6.5-4.2-9.8c-0.4-0.9-0.7-1.8-1.1-2.6c-0.2-0.5,0-0.8,0.5-0.8
			c0.2,0,0.4,0,0.6,0c9.2,0,18.4,0,27.6,0c1.2,0,1.2,0,1.2,1.2C190.8,17.3,190.8,28.4,190.8,39.5z"/>
		<path class="st0" d="M144.1,60.9c-1.9,0-3.8,0-5.8,0c-1,0-1.1-0.3-0.6-1.1c0.7-1.4,1.2-2.9,1.9-4.3c1.2-2.8,2.4-5.5,3.6-8.3
			c1-2.4,2-4.7,3-7.1c0.9-2.2,1.9-4.4,2.8-6.6c0.3-0.6,0.5-1.3,0.8-1.9c0.1-0.3,0.2-0.6,0.6-0.6c0.4,0,0.6,0.3,0.7,0.6
			c0.6,1.4,1.2,2.8,1.7,4.1c1.2,2.8,2.4,5.6,3.5,8.3c1.6,3.7,3.1,7.3,4.7,11c1,2.3,2,4.6,3,6.9c1,2.3,2,4.6,2.9,7
			c0.7,1.6,1.4,3.3,2.1,4.9c0.4,0.9,0.2,1.2-0.8,1.2c-3.5,0-7,0-10.6,0c-0.8,0-1.2-0.3-1.5-1.1c-1-2.5-2-4.9-3-7.4
			c-0.6-1.5-1.2-2.9-1.8-4.4c-0.4-1-0.6-1.2-1.7-1.2C147.9,60.9,146,60.9,144.1,60.9z"/>
	</g>
</g>
<circle class="st1" cx="351.1" cy="43.9" r="12.4"/>
<path class="st1" d="M339.4,5l-7.1,7.8H320c-4.3,0-7.8,3.5-7.8,7.8v46.7c0,4.3,3.5,7.8,7.8,7.8h62.2c4.3,0,7.8-3.5,7.8-7.8V20.6
	c0-4.3-3.5-7.8-7.8-7.8h-12.3L362.8,5H339.4z M351.1,63.3c-10.7,0-19.4-8.7-19.4-19.4s8.7-19.4,19.4-19.4s19.4,8.7,19.4,19.4
	S361.8,63.3,351.1,63.3z"/>
<g>
	<path class="st0" d="M98.7,94c-0.9-0.7-1.3-1.6-1.3-2.8v-0.6c0-0.1,0-0.1,0.1-0.2c0,0,0.1-0.1,0.2-0.1h0.6c0.1,0,0.1,0,0.2,0.1
		c0,0,0.1,0.1,0.1,0.2v0.6c0,0.9,0.4,1.6,1.1,2.1c0.7,0.5,1.7,0.8,2.9,0.8c1.2,0,2-0.2,2.7-0.7c0.6-0.5,0.9-1.1,0.9-2
		c0-0.5-0.1-1-0.4-1.4c-0.3-0.4-0.7-0.7-1.3-1.1c-0.6-0.3-1.4-0.7-2.4-1.2c-1.1-0.5-1.9-0.8-2.5-1.2s-1-0.7-1.3-1.2
		c-0.3-0.5-0.5-1.1-0.5-1.8c0-1.1,0.4-2,1.2-2.7c0.8-0.6,1.9-0.9,3.3-0.9c1.5,0,2.7,0.3,3.6,1c0.9,0.7,1.3,1.6,1.3,2.8v0.4
		c0,0.1,0,0.1-0.1,0.2c0,0-0.1,0.1-0.2,0.1h-0.6c-0.1,0-0.1,0-0.2-0.1c0,0-0.1-0.1-0.1-0.2v-0.4c0-0.9-0.3-1.6-1-2.1
		c-0.7-0.5-1.6-0.8-2.8-0.8c-1.1,0-1.9,0.2-2.5,0.7c-0.6,0.4-0.9,1.1-0.9,1.9c0,0.6,0.1,1,0.4,1.4c0.3,0.3,0.6,0.7,1.1,0.9
		c0.5,0.3,1.3,0.6,2.3,1c1,0.4,1.9,0.8,2.5,1.2c0.6,0.4,1.1,0.8,1.5,1.4c0.4,0.5,0.5,1.1,0.5,1.9c0,1.1-0.4,2-1.3,2.7
		c-0.8,0.7-2,1-3.5,1C100.8,95,99.6,94.7,98.7,94z"/>
	<path class="st0" d="M116.7,84.3c0,0,0.1-0.1,0.2-0.1h0.6c0.1,0,0.1,0,0.2,0.1c0,0,0.1,0.1,0.1,0.2v10.1c0,0.1,0,0.1-0.1,0.2
		c0,0-0.1,0.1-0.2,0.1h-0.6c-0.1,0-0.1,0-0.2-0.1c0,0-0.1-0.1-0.1-0.2v-1c0,0,0-0.1,0-0.1c0,0,0,0-0.1,0.1c-0.3,0.5-0.7,0.8-1.2,1
		c-0.5,0.2-1.1,0.4-1.7,0.4c-1,0-1.9-0.3-2.6-0.9c-0.7-0.6-1-1.5-1-2.5v-7c0-0.1,0-0.1,0.1-0.2c0,0,0.1-0.1,0.2-0.1h0.6
		c0.1,0,0.1,0,0.2,0.1c0,0,0.1,0.1,0.1,0.2v6.7c0,0.8,0.2,1.5,0.7,2c0.5,0.5,1.2,0.8,2,0.8c0.9,0,1.5-0.3,2.1-0.8
		c0.5-0.5,0.8-1.2,0.8-2v-6.7C116.6,84.5,116.7,84.4,116.7,84.3z"/>
	<path class="st0" d="M121.4,81.9c-0.2-0.2-0.3-0.4-0.3-0.7c0-0.3,0.1-0.5,0.3-0.6c0.2-0.2,0.4-0.3,0.7-0.3s0.5,0.1,0.7,0.3
		c0.2,0.2,0.3,0.4,0.3,0.6c0,0.3-0.1,0.5-0.3,0.7c-0.2,0.2-0.4,0.3-0.7,0.3S121.6,82.1,121.4,81.9z M121.6,94.8c0,0-0.1-0.1-0.1-0.2
		V84.5c0-0.1,0-0.1,0.1-0.2c0,0,0.1-0.1,0.2-0.1h0.6c0.1,0,0.1,0,0.2,0.1c0,0,0.1,0.1,0.1,0.2v10.1c0,0.1,0,0.1-0.1,0.2
		c0,0-0.1,0.1-0.2,0.1h-0.6C121.7,94.8,121.7,94.8,121.6,94.8z"/>
	<path class="st0" d="M130.8,85.1c0,0-0.1,0.1-0.2,0.1h-2.4c-0.1,0-0.1,0-0.1,0.1v6.6c0,0.7,0.2,1.2,0.5,1.5s0.8,0.4,1.6,0.4h0.4
		c0.1,0,0.1,0,0.2,0.1c0,0,0.1,0.1,0.1,0.2v0.5c0,0.2-0.1,0.3-0.3,0.3l-0.6,0c-1,0-1.7-0.2-2.2-0.6c-0.5-0.4-0.8-1.1-0.8-2.1v-6.9
		c0-0.1,0-0.1-0.1-0.1h-1.2c-0.1,0-0.1,0-0.2-0.1c0,0-0.1-0.1-0.1-0.2v-0.4c0-0.1,0-0.1,0.1-0.2c0,0,0.1-0.1,0.2-0.1h1.2
		c0.1,0,0.1,0,0.1-0.1v-2.3c0-0.1,0-0.1,0.1-0.2c0,0,0.1-0.1,0.2-0.1h0.6c0.1,0,0.1,0,0.2,0.1c0,0,0.1,0.1,0.1,0.2v2.3
		c0,0.1,0,0.1,0.1,0.1h2.4c0.1,0,0.1,0,0.2,0.1c0,0,0.1,0.1,0.1,0.2V85C130.8,85,130.8,85.1,130.8,85.1z"/>
	<path class="st0" d="M139.2,93.6c0.5-0.3,0.9-0.7,1.1-1.2c0.1-0.1,0.2-0.2,0.3-0.1l0.4,0.1c0.2,0.1,0.2,0.2,0.1,0.3
		c-0.3,0.7-0.8,1.3-1.4,1.7c-0.7,0.4-1.4,0.6-2.3,0.6c-1,0-1.8-0.2-2.4-0.7c-0.7-0.5-1.1-1.1-1.4-1.9c-0.2-0.6-0.3-1.6-0.3-2.8
		c0-0.7,0-1.2,0-1.6c0-0.3,0.1-0.7,0.1-1c0.2-0.9,0.7-1.6,1.4-2.1c0.7-0.5,1.5-0.8,2.5-0.8c1.1,0,2,0.3,2.7,0.9
		c0.7,0.6,1.1,1.4,1.3,2.4c0.1,0.3,0.1,0.6,0.1,0.9c0,0.3,0,0.8,0,1.4c0,0.2-0.1,0.3-0.3,0.3h-6.8c-0.1,0-0.1,0-0.1,0.1
		c0,0.9,0,1.5,0.1,1.8c0.2,0.7,0.5,1.2,1,1.6c0.5,0.4,1.2,0.6,2,0.6C138.2,94,138.8,93.9,139.2,93.6z M134.4,88.9
		C134.4,89,134.4,89,134.4,88.9l5.9,0.1c0.1,0,0.1,0,0.1-0.1c0-0.7,0-1.2-0.1-1.6c-0.2-0.7-0.5-1.2-1-1.6c-0.5-0.4-1.2-0.6-1.9-0.6
		c-0.8,0-1.4,0.2-1.9,0.6c-0.5,0.4-0.8,0.9-1,1.6C134.4,87.5,134.4,88.1,134.4,88.9z"/>
	<path class="st0" d="M157.5,94.6l-0.9-2.7c0,0,0-0.1-0.1-0.1H150c0,0-0.1,0-0.1,0.1l-0.9,2.7c0,0.1-0.1,0.2-0.3,0.2h-0.7
		c-0.1,0-0.1,0-0.2-0.1c0,0,0-0.1,0-0.2l4.7-14.2c0-0.1,0.1-0.2,0.3-0.2h0.9c0.1,0,0.2,0.1,0.3,0.2l4.7,14.2c0,0,0,0.1,0,0.1
		c0,0.1-0.1,0.2-0.2,0.2h-0.6C157.7,94.8,157.6,94.8,157.5,94.6z M150.3,90.9C150.3,90.9,150.3,90.9,150.3,90.9l5.9,0
		c0,0,0.1,0,0.1,0c0,0,0,0,0-0.1l-3-9.2c0,0,0,0-0.1,0c0,0,0,0-0.1,0L150.3,90.9C150.2,90.8,150.3,90.8,150.3,90.9z"/>
	<path class="st0" d="M167.5,80.2c0,0,0.1-0.1,0.2-0.1h0.6c0.1,0,0.1,0,0.2,0.1c0,0,0.1,0.1,0.1,0.2v14.2c0,0.1,0,0.1-0.1,0.2
		c0,0-0.1,0.1-0.2,0.1h-0.6c-0.1,0-0.1,0-0.2-0.1c0,0-0.1-0.1-0.1-0.2v-1c0,0,0-0.1,0-0.1c0,0,0,0-0.1,0c-0.3,0.5-0.7,0.8-1.2,1.1
		c-0.5,0.3-1,0.4-1.6,0.4c-0.9,0-1.8-0.3-2.4-0.8c-0.7-0.5-1.1-1.2-1.3-2c-0.2-0.6-0.2-1.5-0.2-2.6c0-0.6,0-1.1,0-1.6
		c0-0.4,0.1-0.8,0.2-1.1c0.2-0.9,0.7-1.6,1.3-2.1c0.7-0.5,1.5-0.8,2.4-0.8c0.6,0,1.2,0.1,1.6,0.4c0.5,0.2,0.9,0.6,1.2,1.1
		c0,0,0,0,0.1,0c0,0,0,0,0-0.1v-5.1C167.4,80.3,167.4,80.3,167.5,80.2z M167.3,91.1c0-0.3,0.1-0.9,0.1-1.6c0-0.7,0-1.3-0.1-1.6
		c0-0.3-0.1-0.7-0.2-0.9c-0.1-0.6-0.4-1-0.9-1.4c-0.4-0.4-1-0.5-1.6-0.5c-0.7,0-1.2,0.2-1.7,0.5c-0.5,0.4-0.8,0.8-1,1.4
		c-0.1,0.3-0.2,0.6-0.3,0.9c0,0.3-0.1,0.9-0.1,1.6c0,0.7,0,1.2,0.1,1.5c0,0.3,0.1,0.6,0.2,1c0.2,0.6,0.5,1.1,1,1.4
		c0.5,0.4,1.1,0.5,1.8,0.5c0.7,0,1.2-0.2,1.6-0.5c0.4-0.4,0.7-0.8,0.9-1.4C167.2,91.8,167.3,91.5,167.3,91.1z"/>
	<path class="st0" d="M173.4,94.2c-0.7-0.5-1.2-1.2-1.4-2.1c-0.2-0.6-0.3-1.4-0.3-2.6c0-1.1,0.1-2,0.2-2.6c0.3-0.9,0.7-1.6,1.4-2.1
		c0.7-0.5,1.5-0.8,2.5-0.8c1,0,1.8,0.3,2.5,0.8c0.7,0.5,1.2,1.2,1.4,2.1c0.2,0.6,0.2,1.4,0.2,2.6c0,1.2-0.1,2.1-0.2,2.6
		c-0.2,0.9-0.7,1.6-1.4,2.1c-0.7,0.5-1.5,0.8-2.5,0.8C175,95,174.1,94.7,173.4,94.2z M177.9,93.4c0.5-0.4,0.9-1,1-1.6
		c0.1-0.4,0.1-1.1,0.1-2.2c0-1.1,0-1.9-0.1-2.2c-0.2-0.7-0.5-1.2-1-1.6c-0.5-0.4-1.2-0.6-1.9-0.6s-1.4,0.2-1.9,0.6s-0.9,1-1,1.6
		c-0.1,0.4-0.1,1.1-0.1,2.2c0,1.1,0,1.9,0.1,2.2c0.2,0.7,0.5,1.2,1,1.6s1.2,0.6,1.9,0.6C176.7,94,177.3,93.8,177.9,93.4z"/>
	<path class="st0" d="M191.4,88c0,0.4,0,0.9,0,1.6c0,1.2-0.1,2.1-0.2,2.6c-0.2,0.9-0.7,1.5-1.3,2c-0.7,0.5-1.5,0.8-2.4,0.8
		c-0.6,0-1.2-0.1-1.6-0.4c-0.5-0.3-0.9-0.6-1.2-1.1c0,0-0.1,0-0.1,0c0,0,0,0,0,0.1v1c0,0.1,0,0.1-0.1,0.2c0,0-0.1,0.1-0.2,0.1h-0.6
		c-0.1,0-0.1,0-0.2-0.1c0,0-0.1-0.1-0.1-0.2V80.4c0-0.1,0-0.1,0.1-0.2c0,0,0.1-0.1,0.2-0.1h0.6c0.1,0,0.1,0,0.2,0.1
		c0,0,0.1,0.1,0.1,0.2v5.1c0,0,0,0,0,0.1c0,0,0,0,0.1,0c0.3-0.5,0.7-0.8,1.2-1.1c0.5-0.2,1-0.4,1.6-0.4c1,0,1.8,0.3,2.4,0.8
		c0.7,0.5,1.1,1.2,1.3,2.1C191.3,87.3,191.4,87.6,191.4,88z M190.3,91.1c0-0.3,0.1-0.8,0.1-1.5c0-0.7,0-1.3-0.1-1.6
		c0-0.3-0.1-0.7-0.3-0.9c-0.2-0.6-0.5-1-1-1.4c-0.5-0.4-1-0.5-1.7-0.5c-0.6,0-1.2,0.2-1.6,0.5c-0.4,0.4-0.7,0.8-0.9,1.4
		c-0.1,0.3-0.2,0.6-0.2,0.9c0,0.3-0.1,0.9-0.1,1.6c0,0.7,0,1.2,0.1,1.6c0,0.3,0.1,0.6,0.2,0.9c0.2,0.6,0.5,1.1,0.9,1.4
		c0.4,0.4,1,0.5,1.6,0.5c0.7,0,1.3-0.2,1.8-0.5c0.5-0.4,0.8-0.8,1-1.4C190.2,91.7,190.2,91.4,190.3,91.1z"/>
	<path class="st0" d="M200.3,93.6c0.5-0.3,0.9-0.7,1.1-1.2c0.1-0.1,0.2-0.2,0.3-0.1l0.4,0.1c0.2,0.1,0.2,0.2,0.1,0.3
		c-0.3,0.7-0.8,1.3-1.4,1.7c-0.7,0.4-1.4,0.6-2.3,0.6c-1,0-1.8-0.2-2.4-0.7s-1.1-1.1-1.4-1.9c-0.2-0.6-0.3-1.6-0.3-2.8
		c0-0.7,0-1.2,0-1.6c0-0.3,0.1-0.7,0.1-1c0.2-0.9,0.7-1.6,1.4-2.1c0.7-0.5,1.5-0.8,2.5-0.8c1.1,0,2,0.3,2.7,0.9
		c0.7,0.6,1.1,1.4,1.3,2.4c0.1,0.3,0.1,0.6,0.1,0.9c0,0.3,0,0.8,0,1.4c0,0.2-0.1,0.3-0.3,0.3h-6.8c-0.1,0-0.1,0-0.1,0.1
		c0,0.9,0,1.5,0.1,1.8c0.2,0.7,0.5,1.2,1,1.6c0.5,0.4,1.2,0.6,2,0.6C199.3,94,199.8,93.9,200.3,93.6z M195.4,88.9
		C195.4,89,195.5,89,195.4,88.9l5.9,0.1c0.1,0,0.1,0,0.1-0.1c0-0.7,0-1.2-0.1-1.6c-0.2-0.7-0.5-1.2-1-1.6c-0.5-0.4-1.2-0.6-1.9-0.6
		c-0.8,0-1.4,0.2-1.9,0.6c-0.5,0.4-0.8,0.9-1,1.6C195.5,87.5,195.5,88.1,195.4,88.9z"/>
</g>
<g>
	<path class="st1" d="M298.6,81.4c0.7,0.7,1.1,1.7,1.1,2.9c0,1.2-0.4,2.1-1.1,2.8c-0.7,0.7-1.7,1.1-2.9,1.1h-4.3
		c-0.1,0-0.1,0-0.1,0.1v6.3c0,0.1,0,0.1-0.1,0.2c0,0-0.1,0.1-0.2,0.1h-0.6c-0.1,0-0.1,0-0.2-0.1c0,0-0.1-0.1-0.1-0.2V80.5
		c0-0.1,0-0.1,0.1-0.2c0,0,0.1-0.1,0.2-0.1h5.3C296.9,80.3,297.9,80.6,298.6,81.4z M297.8,86.4c0.5-0.5,0.8-1.3,0.8-2.1
		c0-0.9-0.3-1.6-0.8-2.2c-0.5-0.5-1.2-0.8-2.1-0.8h-4.3c-0.1,0-0.1,0-0.1,0.1v5.8c0,0.1,0,0.1,0.1,0.1h4.3
		C296.5,87.2,297.3,86.9,297.8,86.4z"/>
	<path class="st1" d="M309,85.2c0.6,0.6,1,1.5,1,2.6v6.8c0,0.1,0,0.1-0.1,0.2c0,0-0.1,0.1-0.2,0.1h-0.6c-0.1,0-0.1,0-0.2-0.1
		c0,0-0.1-0.1-0.1-0.2V88c0-0.8-0.2-1.5-0.7-2c-0.5-0.5-1.1-0.8-1.9-0.8c-0.8,0-1.5,0.3-2,0.8c-0.5,0.5-0.8,1.2-0.8,2v6.6
		c0,0.1,0,0.1-0.1,0.2c0,0-0.1,0.1-0.2,0.1h-0.6c-0.1,0-0.1,0-0.2-0.1c0,0-0.1-0.1-0.1-0.2v-14c0-0.1,0-0.1,0.1-0.2
		c0,0,0.1-0.1,0.2-0.1h0.6c0.1,0,0.1,0,0.2,0.1c0,0,0.1,0.1,0.1,0.2v5c0,0,0,0.1,0,0.1c0,0,0,0,0.1,0c0.3-0.5,0.7-0.8,1.2-1
		s1.1-0.4,1.7-0.4C307.5,84.2,308.3,84.6,309,85.2z"/>
	<path class="st1" d="M314.7,94.2c-0.7-0.5-1.2-1.2-1.4-2.1c-0.2-0.6-0.2-1.4-0.2-2.6c0-1.1,0.1-2,0.2-2.6c0.2-0.9,0.7-1.5,1.4-2
		c0.7-0.5,1.5-0.8,2.5-0.8c1,0,1.8,0.3,2.5,0.8s1.2,1.2,1.4,2c0.2,0.6,0.2,1.4,0.2,2.6c0,1.2-0.1,2-0.2,2.6
		c-0.2,0.9-0.7,1.5-1.4,2.1s-1.5,0.8-2.5,0.8C316.3,95,315.4,94.7,314.7,94.2z M319.1,93.4c0.5-0.4,0.9-0.9,1-1.6
		c0.1-0.4,0.1-1.1,0.1-2.2c0-1.1,0-1.8-0.1-2.2c-0.2-0.7-0.5-1.2-1-1.6s-1.2-0.6-1.9-0.6c-0.7,0-1.4,0.2-1.9,0.6s-0.8,0.9-1,1.6
		c-0.1,0.4-0.1,1.1-0.1,2.2c0,1.1,0,1.8,0.1,2.2c0.2,0.7,0.5,1.2,1,1.6s1.1,0.6,1.9,0.6C318,94,318.6,93.8,319.1,93.4z"/>
	<path class="st1" d="M328.8,85.2c0,0-0.1,0.1-0.2,0.1h-2.4c-0.1,0-0.1,0-0.1,0.1v6.5c0,0.7,0.2,1.2,0.5,1.5
		c0.3,0.3,0.8,0.4,1.5,0.4h0.4c0.1,0,0.1,0,0.2,0.1c0,0,0.1,0.1,0.1,0.2v0.5c0,0.2-0.1,0.2-0.2,0.2l-0.6,0c-1,0-1.7-0.2-2.2-0.6
		c-0.5-0.4-0.8-1.1-0.8-2.1v-6.8c0-0.1,0-0.1-0.1-0.1h-1.2c-0.1,0-0.1,0-0.2-0.1c0,0-0.1-0.1-0.1-0.2v-0.4c0-0.1,0-0.1,0.1-0.2
		c0,0,0.1-0.1,0.2-0.1h1.2c0.1,0,0.1,0,0.1-0.1V82c0-0.1,0-0.1,0.1-0.2c0,0,0.1-0.1,0.2-0.1h0.6c0.1,0,0.1,0,0.2,0.1
		c0,0,0.1,0.1,0.1,0.2v2.3c0,0.1,0,0.1,0.1,0.1h2.4c0.1,0,0.1,0,0.2,0.1c0,0,0.1,0.1,0.1,0.2v0.4C328.9,85.1,328.9,85.2,328.8,85.2z
		"/>
	<path class="st1" d="M332.9,94.2c-0.7-0.5-1.2-1.2-1.4-2.1c-0.2-0.6-0.2-1.4-0.2-2.6c0-1.1,0.1-2,0.2-2.6c0.2-0.9,0.7-1.5,1.4-2
		c0.7-0.5,1.5-0.8,2.5-0.8c1,0,1.8,0.3,2.5,0.8s1.2,1.2,1.4,2c0.2,0.6,0.2,1.4,0.2,2.6c0,1.2-0.1,2-0.2,2.6
		c-0.2,0.9-0.7,1.5-1.4,2.1s-1.5,0.8-2.5,0.8C334.4,95,333.6,94.7,332.9,94.2z M337.3,93.4c0.5-0.4,0.9-0.9,1-1.6
		c0.1-0.4,0.1-1.1,0.1-2.2c0-1.1,0-1.8-0.1-2.2c-0.2-0.7-0.5-1.2-1-1.6c-0.5-0.4-1.2-0.6-1.9-0.6c-0.7,0-1.4,0.2-1.9,0.6
		s-0.8,0.9-1,1.6c-0.1,0.4-0.1,1.1-0.1,2.2c0,1.1,0,1.8,0.1,2.2c0.2,0.7,0.5,1.2,1,1.6s1.1,0.6,1.9,0.6
		C336.2,94,336.8,93.8,337.3,93.4z"/>
	<path class="st1" d="M357.3,94.7c0,0.1-0.1,0.1-0.2,0.1h-0.7c-0.1,0-0.2,0-0.3-0.1l-1.3-1.6c0,0,0,0-0.1,0c0,0,0,0-0.1,0
		c-0.7,0.7-1.3,1.2-2,1.5c-0.7,0.3-1.4,0.4-2.2,0.4c-1.2,0-2.2-0.3-2.9-0.9c-0.7-0.6-1.1-1.4-1.1-2.4c0-1,0.3-1.8,0.8-2.5
		c0.5-0.7,1.3-1.4,2.3-2.1c0,0,0-0.1,0-0.1c-0.8-1-1.4-1.8-1.6-2.3c-0.3-0.5-0.4-1-0.4-1.5c0-0.9,0.3-1.7,0.9-2.3
		c0.6-0.6,1.4-0.9,2.4-0.9c1,0,1.8,0.3,2.5,0.8c0.6,0.6,0.9,1.3,0.9,2.2c0,0.8-0.3,1.6-0.8,2.2c-0.5,0.6-1.3,1.2-2.3,1.9
		c0,0,0,0.1,0,0.1c0.6,0.8,1.4,1.7,2.3,2.7c0.5,0.6,0.9,1,1.1,1.4c0,0,0.1,0,0.1,0c0.3-0.4,0.8-1,1.4-1.8c0.1-0.1,0.2-0.1,0.4-0.1
		l0.4,0.2c0.2,0.1,0.2,0.2,0.1,0.3c-0.5,0.7-1,1.4-1.6,2.1v0c0,0,0,0.1,0.1,0.2l1.7,2.1C357.2,94.6,357.3,94.6,357.3,94.7z
		 M352.2,93.6c0.6-0.3,1.1-0.7,1.7-1.3c0,0,0-0.1,0-0.1c-0.5-0.6-0.8-1-1-1.2c-0.4-0.5-0.6-0.7-0.7-0.8l-2-2.3c0,0,0,0-0.1,0
		c-0.9,0.6-1.5,1.2-2,1.8c-0.5,0.6-0.7,1.2-0.7,2c0,0.7,0.3,1.3,0.8,1.7c0.5,0.4,1.2,0.6,2.1,0.6C351.1,94,351.7,93.9,352.2,93.6z
		 M349.3,81.7c-0.4,0.4-0.6,0.9-0.6,1.5c0,0.4,0.1,0.7,0.3,1.2c0.2,0.4,0.7,1.1,1.5,2c0,0,0.1,0,0.1,0c0.8-0.6,1.5-1.1,1.9-1.6
		c0.4-0.5,0.7-1.1,0.7-1.7c0-0.6-0.2-1.1-0.6-1.4c-0.4-0.4-1-0.5-1.6-0.5C350.2,81.2,349.7,81.4,349.3,81.7z"/>
	<path class="st1" d="M368.2,94.6l-4.6-14c0,0,0-0.1,0-0.1c0-0.1,0.1-0.2,0.2-0.2h0.7c0.1,0,0.2,0.1,0.3,0.2l4,12.6c0,0,0,0,0.1,0
		c0,0,0,0,0.1,0l4.1-12.6c0-0.1,0.1-0.2,0.3-0.2h0.6c0.1,0,0.1,0,0.2,0.1c0,0,0,0.1,0,0.2l-4.6,14c0,0.1-0.1,0.2-0.3,0.2h-0.7
		C368.3,94.8,368.2,94.8,368.2,94.6z"/>
	<path class="st1" d="M376.7,82c-0.2-0.2-0.3-0.4-0.3-0.7c0-0.3,0.1-0.5,0.3-0.6c0.2-0.2,0.4-0.2,0.7-0.2c0.3,0,0.5,0.1,0.7,0.2
		c0.2,0.2,0.3,0.4,0.3,0.6c0,0.3-0.1,0.5-0.3,0.7c-0.2,0.2-0.4,0.3-0.7,0.3C377.1,82.3,376.9,82.2,376.7,82z M376.9,94.8
		c0,0-0.1-0.1-0.1-0.2v-10c0-0.1,0-0.1,0.1-0.2c0,0,0.1-0.1,0.2-0.1h0.6c0.1,0,0.1,0,0.2,0.1c0,0,0.1,0.1,0.1,0.2v10
		c0,0.1,0,0.1-0.1,0.2c0,0-0.1,0.1-0.2,0.1h-0.6C377,94.8,376.9,94.8,376.9,94.8z"/>
	<path class="st1" d="M388.2,80.4c0,0,0.1-0.1,0.2-0.1h0.6c0.1,0,0.1,0,0.2,0.1c0,0,0.1,0.1,0.1,0.2v14c0,0.1,0,0.1-0.1,0.2
		c0,0-0.1,0.1-0.2,0.1h-0.6c-0.1,0-0.1,0-0.2-0.1c0,0-0.1-0.1-0.1-0.2v-1c0,0,0-0.1,0-0.1c0,0,0,0-0.1,0c-0.3,0.5-0.7,0.8-1.2,1.1
		c-0.5,0.2-1,0.4-1.6,0.4c-0.9,0-1.7-0.2-2.4-0.7c-0.6-0.5-1.1-1.2-1.3-2c-0.2-0.6-0.2-1.5-0.2-2.6c0-0.6,0-1.1,0-1.5
		c0-0.4,0.1-0.8,0.2-1.1c0.2-0.9,0.7-1.5,1.3-2c0.7-0.5,1.5-0.8,2.4-0.8c0.6,0,1.2,0.1,1.6,0.4c0.5,0.2,0.9,0.6,1.2,1c0,0,0,0,0.1,0
		c0,0,0,0,0-0.1v-5C388.1,80.5,388.2,80.4,388.2,80.4z M388.1,91.2c0-0.3,0.1-0.9,0.1-1.6c0-0.7,0-1.3-0.1-1.6
		c0-0.3-0.1-0.6-0.2-0.9c-0.1-0.6-0.4-1-0.9-1.4c-0.4-0.4-1-0.5-1.6-0.5c-0.6,0-1.2,0.2-1.7,0.5c-0.5,0.4-0.8,0.8-1,1.4
		c-0.1,0.3-0.2,0.6-0.3,0.9c0,0.3-0.1,0.9-0.1,1.6c0,0.7,0,1.2,0.1,1.5c0,0.3,0.1,0.6,0.2,0.9c0.2,0.6,0.5,1.1,1,1.4
		c0.5,0.4,1.1,0.5,1.7,0.5c0.6,0,1.2-0.2,1.6-0.5c0.4-0.4,0.7-0.8,0.9-1.4C388,91.8,388,91.5,388.1,91.2z"/>
	<path class="st1" d="M398.4,93.6c0.5-0.3,0.8-0.7,1.1-1.2c0.1-0.1,0.2-0.2,0.3-0.1l0.4,0.1c0.2,0.1,0.2,0.2,0.1,0.3
		c-0.3,0.7-0.8,1.3-1.4,1.7c-0.7,0.4-1.4,0.6-2.3,0.6c-1,0-1.8-0.2-2.4-0.7c-0.7-0.5-1.1-1.1-1.4-1.9c-0.2-0.6-0.3-1.6-0.3-2.8
		c0-0.7,0-1.2,0-1.5c0-0.3,0.1-0.7,0.1-1c0.2-0.9,0.7-1.6,1.4-2.1c0.7-0.5,1.5-0.8,2.5-0.8c1.1,0,2,0.3,2.7,0.9s1.1,1.4,1.3,2.4
		c0.1,0.3,0.1,0.6,0.1,0.9c0,0.3,0,0.7,0,1.4c0,0.2-0.1,0.3-0.2,0.3h-6.7c-0.1,0-0.1,0-0.1,0.1c0,0.9,0,1.5,0.1,1.8
		c0.2,0.7,0.5,1.2,1,1.6c0.5,0.4,1.2,0.6,2,0.6C397.4,94,397.9,93.9,398.4,93.6z M393.6,89C393.6,89,393.6,89.1,393.6,89l5.9,0.1
		c0.1,0,0.1,0,0.1-0.1c0-0.7,0-1.2-0.1-1.6c-0.2-0.7-0.5-1.2-1-1.6c-0.5-0.4-1.1-0.6-1.9-0.6c-0.7,0-1.4,0.2-1.9,0.6
		c-0.5,0.4-0.8,0.9-1,1.6C393.7,87.6,393.6,88.2,393.6,89z M395.8,82.6c0-0.1,0-0.1,0-0.2l1.2-2.2c0.1-0.1,0.2-0.2,0.3-0.2h0.6
		c0.1,0,0.2,0,0.2,0.1c0,0,0,0.1,0,0.2l-1.3,2.2c-0.1,0.1-0.2,0.2-0.3,0.2H396C395.9,82.7,395.9,82.6,395.8,82.6z"/>
	<path class="st1" d="M405.1,94.2c-0.7-0.5-1.2-1.2-1.4-2.1c-0.2-0.6-0.2-1.4-0.2-2.6c0-1.1,0.1-2,0.2-2.6c0.2-0.9,0.7-1.5,1.4-2
		c0.7-0.5,1.5-0.8,2.5-0.8c1,0,1.8,0.3,2.5,0.8s1.2,1.2,1.4,2c0.2,0.6,0.2,1.4,0.2,2.6c0,1.2-0.1,2-0.2,2.6
		c-0.2,0.9-0.7,1.5-1.4,2.1s-1.5,0.8-2.5,0.8C406.7,95,405.8,94.7,405.1,94.2z M409.5,93.4c0.5-0.4,0.9-0.9,1-1.6
		c0.1-0.4,0.1-1.1,0.1-2.2c0-1.1,0-1.8-0.1-2.2c-0.2-0.7-0.5-1.2-1-1.6c-0.5-0.4-1.2-0.6-1.9-0.6c-0.7,0-1.4,0.2-1.9,0.6
		s-0.8,0.9-1,1.6c-0.1,0.4-0.1,1.1-0.1,2.2c0,1.1,0,1.8,0.1,2.2c0.2,0.7,0.5,1.2,1,1.6s1.1,0.6,1.9,0.6
		C408.4,94,409,93.8,409.5,93.4z"/>
</g>
</svg>
