<?xml version="1.0" encoding="utf-8"?>
<!-- Generator: Adobe Illustrator 22.0.1, SVG Export Plug-In . SVG Version: 6.00 Build 0)  -->
<svg version="1.1" id="Calque_1" xmlns="http://www.w3.org/2000/svg" xmlns:xlink="http://www.w3.org/1999/xlink" x="0px" y="0px"
	 viewBox="0 0 500 100" style="enable-background:new 0 0 500 100;" xml:space="preserve">
<style type="text/css">
	.st0{fill:#464646;}
	.st1{fill:#FEFEFE;}
</style>
<image style="overflow:visible;" width="3400" height="1365" xlink:href="7302111B.jpg"  transform="matrix(7.326008e-02 0 0 7.326008e-02 -1444 6.5)">
</image>
<g>
	<path class="st0" d="M205.6,94.6l-4.1-14.3l0-0.1c0-0.1,0.1-0.2,0.2-0.2h0.7c0.2,0,0.3,0.1,0.3,0.2l3.5,12.3c0,0,0,0,0.1,0
		c0,0,0,0,0.1,0l3.2-12.3c0-0.1,0.1-0.2,0.3-0.2h0.7c0.2,0,0.3,0.1,0.3,0.2l3.3,12.3c0,0,0,0,0.1,0c0,0,0,0,0.1,0l3.5-12.3
		c0-0.1,0.1-0.2,0.3-0.2h0.6c0.2,0,0.3,0.1,0.2,0.3l-4.1,14.3c0,0.1-0.1,0.2-0.3,0.2h-0.7c-0.2,0-0.3-0.1-0.3-0.2l-3.3-12.5
		c0,0,0,0,0,0c0,0,0,0,0,0l-3.3,12.5c0,0.1-0.1,0.2-0.3,0.2h-0.6C205.8,94.8,205.7,94.8,205.6,94.6z"/>
	<path class="st0" d="M221.6,94.2c-0.7-0.5-1.2-1.2-1.4-2.1c-0.2-0.6-0.3-1.4-0.3-2.6c0-1.1,0.1-2,0.2-2.6c0.3-0.9,0.7-1.6,1.4-2.1
		c0.7-0.5,1.6-0.8,2.6-0.8c1,0,1.8,0.3,2.5,0.8s1.2,1.2,1.4,2.1c0.2,0.6,0.2,1.4,0.2,2.6c0,1.2-0.1,2.1-0.2,2.6
		c-0.2,0.9-0.7,1.6-1.4,2.1s-1.6,0.8-2.5,0.8C223.2,95,222.3,94.7,221.6,94.2z M226.1,93.4c0.5-0.4,0.9-1,1-1.6
		c0.1-0.4,0.1-1.1,0.1-2.2c0-1.1,0-1.9-0.1-2.2c-0.2-0.7-0.5-1.2-1-1.6s-1.2-0.6-1.9-0.6s-1.4,0.2-1.9,0.6c-0.5,0.4-0.9,1-1,1.6
		c-0.1,0.4-0.1,1.1-0.1,2.2c0,1.1,0,1.9,0.1,2.2c0.2,0.7,0.5,1.2,1,1.6c0.5,0.4,1.2,0.6,1.9,0.6C224.9,94,225.5,93.8,226.1,93.4z"/>
	<path class="st0" d="M236.9,84.3c0.1,0.1,0.2,0.2,0.1,0.3l-0.2,0.6c0,0.2-0.1,0.2-0.3,0.1c-0.3-0.1-0.6-0.1-1-0.1
		c-0.8,0-1.4,0.3-2,0.9c-0.5,0.6-0.8,1.3-0.8,2.1v6.3c0,0.1,0,0.1-0.1,0.2c0,0-0.1,0.1-0.2,0.1h-0.6c-0.1,0-0.1,0-0.2-0.1
		s-0.1-0.1-0.1-0.2V84.4c0-0.1,0-0.1,0.1-0.2c0,0,0.1-0.1,0.2-0.1h0.6c0.1,0,0.1,0,0.2,0.1c0,0,0.1,0.1,0.1,0.2v1.4c0,0,0,0.1,0,0.1
		c0,0,0,0,0.1-0.1c0.3-0.5,0.7-1,1.2-1.3c0.5-0.3,1-0.5,1.7-0.5C236.1,84.1,236.5,84.2,236.9,84.3z"/>
	<path class="st0" d="M245.7,80.1c0,0,0.1-0.1,0.2-0.1h0.6c0.1,0,0.1,0,0.2,0.1s0.1,0.1,0.1,0.2v14.3c0,0.1,0,0.1-0.1,0.2
		s-0.1,0.1-0.2,0.1h-0.6c-0.1,0-0.1,0-0.2-0.1s-0.1-0.1-0.1-0.2v-1c0,0,0-0.1,0-0.1c0,0,0,0-0.1,0c-0.3,0.5-0.7,0.8-1.2,1.1
		c-0.5,0.3-1,0.4-1.7,0.4c-1,0-1.8-0.3-2.4-0.8c-0.7-0.5-1.1-1.2-1.4-2c-0.2-0.6-0.2-1.5-0.2-2.7c0-0.6,0-1.2,0-1.6
		c0-0.4,0.1-0.8,0.2-1.1c0.2-0.9,0.7-1.6,1.3-2.1c0.7-0.5,1.5-0.8,2.5-0.8c0.6,0,1.2,0.1,1.7,0.4c0.5,0.2,0.9,0.6,1.2,1.1
		c0,0,0,0,0.1,0c0,0,0,0,0-0.1v-5.1C245.6,80.2,245.7,80.2,245.7,80.1z M245.6,91.1c0-0.3,0.1-0.9,0.1-1.6c0-0.7,0-1.3-0.1-1.6
		c0-0.3-0.1-0.7-0.2-0.9c-0.1-0.6-0.4-1-0.9-1.4s-1-0.5-1.6-0.5c-0.7,0-1.2,0.2-1.7,0.5c-0.5,0.4-0.8,0.8-1,1.4
		c-0.1,0.3-0.2,0.6-0.3,1c0,0.3-0.1,0.9-0.1,1.6c0,0.7,0,1.2,0.1,1.6c0,0.3,0.1,0.7,0.2,1c0.2,0.6,0.5,1.1,1,1.4
		c0.5,0.4,1.1,0.5,1.8,0.5c0.7,0,1.2-0.2,1.7-0.5c0.4-0.4,0.7-0.8,0.9-1.4C245.5,91.8,245.5,91.5,245.6,91.1z"/>
	<path class="st0" d="M259.1,81.1c0.7,0.7,1.1,1.7,1.1,2.9c0,1.2-0.4,2.2-1.1,2.9c-0.7,0.7-1.7,1.1-2.9,1.1h-4.4
		c-0.1,0-0.1,0-0.1,0.1v6.5c0,0.1,0,0.1-0.1,0.2s-0.1,0.1-0.2,0.1h-0.6c-0.1,0-0.1,0-0.2-0.1c0,0-0.1-0.1-0.1-0.2V80.3
		c0-0.1,0-0.1,0.1-0.2c0,0,0.1-0.1,0.2-0.1h5.4C257.5,80,258.4,80.4,259.1,81.1z M258.3,86.2c0.5-0.6,0.8-1.3,0.8-2.2
		c0-0.9-0.3-1.7-0.8-2.2c-0.5-0.6-1.3-0.8-2.1-0.8h-4.4c-0.1,0-0.1,0-0.1,0.1V87c0,0.1,0,0.1,0.1,0.1h4.4
		C257.1,87.1,257.8,86.8,258.3,86.2z"/>
	<path class="st0" d="M268.1,84.3c0.1,0.1,0.2,0.2,0.1,0.3l-0.2,0.6c0,0.2-0.1,0.2-0.3,0.1c-0.3-0.1-0.6-0.1-1-0.1
		c-0.8,0-1.4,0.3-2,0.9c-0.5,0.6-0.8,1.3-0.8,2.1v6.3c0,0.1,0,0.1-0.1,0.2c0,0-0.1,0.1-0.2,0.1h-0.6c-0.1,0-0.1,0-0.2-0.1
		c0,0-0.1-0.1-0.1-0.2V84.4c0-0.1,0-0.1,0.1-0.2c0,0,0.1-0.1,0.2-0.1h0.6c0.1,0,0.1,0,0.2,0.1c0,0,0.1,0.1,0.1,0.2v1.4
		c0,0,0,0.1,0,0.1c0,0,0,0,0.1-0.1c0.3-0.5,0.7-1,1.2-1.3s1-0.5,1.7-0.5C267.4,84.1,267.8,84.2,268.1,84.3z"/>
	<path class="st0" d="M276.1,93.6c0.5-0.3,0.9-0.7,1.1-1.3c0.1-0.1,0.2-0.2,0.3-0.1l0.4,0.1c0.2,0.1,0.2,0.2,0.1,0.3
		c-0.3,0.7-0.8,1.3-1.5,1.7c-0.7,0.4-1.5,0.6-2.4,0.6c-1,0-1.8-0.2-2.5-0.7c-0.7-0.5-1.1-1.1-1.4-2c-0.2-0.6-0.3-1.6-0.3-2.8
		c0-0.7,0-1.2,0-1.6c0-0.4,0.1-0.7,0.1-1c0.2-0.9,0.7-1.6,1.4-2.1c0.7-0.5,1.6-0.8,2.6-0.8c1.1,0,2,0.3,2.7,0.9
		c0.7,0.6,1.1,1.4,1.3,2.4c0.1,0.3,0.1,0.6,0.1,0.9c0,0.3,0,0.8,0,1.4c0,0.2-0.1,0.3-0.3,0.3h-6.9c-0.1,0-0.1,0-0.1,0.1
		c0,0.9,0,1.5,0.1,1.8c0.2,0.7,0.5,1.2,1,1.6c0.5,0.4,1.2,0.6,2,0.6C275,94,275.6,93.9,276.1,93.6z M271.2,88.9
		C271.2,88.9,271.2,89,271.2,88.9l6,0.1c0.1,0,0.1,0,0.1-0.1c0-0.7,0-1.3-0.1-1.6c-0.2-0.7-0.5-1.2-1-1.6c-0.5-0.4-1.2-0.6-1.9-0.6
		c-0.8,0-1.4,0.2-1.9,0.6c-0.5,0.4-0.8,0.9-1,1.6C271.3,87.5,271.2,88,271.2,88.9z"/>
	<path class="st0" d="M282.9,94.6c-0.6-0.2-1-0.6-1.4-1c-0.3-0.4-0.5-0.9-0.5-1.4v-0.2c0-0.1,0-0.1,0.1-0.2c0,0,0.1-0.1,0.2-0.1h0.6
		c0.1,0,0.1,0,0.2,0.1c0,0,0.1,0.1,0.1,0.1v0.2c0,0.5,0.3,1,0.8,1.3c0.5,0.4,1.2,0.6,2,0.6c0.8,0,1.4-0.2,1.9-0.6
		c0.5-0.4,0.7-0.9,0.7-1.4c0-0.4-0.1-0.7-0.4-1c-0.3-0.3-0.6-0.4-0.9-0.6c-0.4-0.1-0.9-0.3-1.6-0.5c-0.8-0.2-1.4-0.5-1.9-0.7
		c-0.5-0.2-0.9-0.5-1.2-0.9c-0.3-0.4-0.5-0.9-0.5-1.5c0-0.9,0.3-1.5,1-2.1c0.7-0.5,1.6-0.8,2.7-0.8c0.7,0,1.4,0.1,2,0.4
		c0.6,0.2,1,0.6,1.3,1c0.3,0.4,0.5,0.9,0.5,1.4v0c0,0.1,0,0.1-0.1,0.2c0,0-0.1,0.1-0.2,0.1h-0.6c-0.1,0-0.1,0-0.2,0
		c0,0-0.1-0.1-0.1-0.1v-0.1c0-0.5-0.3-1-0.8-1.3c-0.5-0.4-1.2-0.5-2-0.5c-0.8,0-1.4,0.2-1.9,0.5s-0.7,0.8-0.7,1.3
		c0,0.5,0.2,0.9,0.7,1.2c0.4,0.3,1.1,0.5,2.1,0.8c0.8,0.2,1.5,0.5,2,0.7c0.5,0.2,0.9,0.5,1.3,0.9c0.4,0.4,0.5,0.9,0.5,1.5
		c0,0.9-0.3,1.6-1,2.1c-0.7,0.5-1.6,0.8-2.7,0.8C284.2,94.9,283.5,94.8,282.9,94.6z"/>
	<path class="st0" d="M292.7,94.6c-0.6-0.2-1-0.6-1.4-1c-0.3-0.4-0.5-0.9-0.5-1.4v-0.2c0-0.1,0-0.1,0.1-0.2c0,0,0.1-0.1,0.2-0.1h0.6
		c0.1,0,0.1,0,0.2,0.1c0,0,0.1,0.1,0.1,0.1v0.2c0,0.5,0.3,1,0.8,1.3c0.5,0.4,1.2,0.6,2,0.6c0.8,0,1.4-0.2,1.9-0.6
		c0.5-0.4,0.7-0.9,0.7-1.4c0-0.4-0.1-0.7-0.4-1c-0.3-0.3-0.6-0.4-0.9-0.6c-0.4-0.1-0.9-0.3-1.6-0.5c-0.8-0.2-1.4-0.5-1.9-0.7
		c-0.5-0.2-0.9-0.5-1.2-0.9c-0.3-0.4-0.5-0.9-0.5-1.5c0-0.9,0.3-1.5,1-2.1c0.7-0.5,1.6-0.8,2.7-0.8c0.7,0,1.4,0.1,2,0.4
		c0.6,0.2,1,0.6,1.3,1c0.3,0.4,0.5,0.9,0.5,1.4v0c0,0.1,0,0.1-0.1,0.2s-0.1,0.1-0.2,0.1h-0.6c-0.1,0-0.1,0-0.2,0
		c0,0-0.1-0.1-0.1-0.1v-0.1c0-0.5-0.3-1-0.8-1.3c-0.5-0.4-1.2-0.5-2-0.5c-0.8,0-1.4,0.2-1.9,0.5s-0.7,0.8-0.7,1.3
		c0,0.5,0.2,0.9,0.7,1.2c0.4,0.3,1.1,0.5,2.1,0.8c0.8,0.2,1.5,0.5,2,0.7c0.5,0.2,0.9,0.5,1.3,0.9c0.4,0.4,0.5,0.9,0.5,1.5
		c0,0.9-0.3,1.6-1,2.1c-0.7,0.5-1.6,0.8-2.7,0.8C293.9,94.9,293.3,94.8,292.7,94.6z"/>
</g>
<g>
	<path class="st0" d="M284.9,40c0,19.3-15.6,35.1-34.8,35c-20.6-0.1-35.3-17-35-35.5c0.3-18.9,16.2-34.8,35.8-34.5
		C269.4,5.3,284.9,21,284.9,40z"/>
	<path class="st1" d="M250,73.3c-18.5,0-33.2-15-33.2-33.9c0-17.8,15.3-32.8,33.3-32.7c19.2,0.1,33.5,16,33.2,34.1
		C283,58.4,268,73.3,250,73.3z"/>
	<path class="st0" d="M270.1,17.9c-4,0.5-6,3.6-4.9,7.3c0.5,1.7,1.5,3.2,2.4,4.7c2.7,4.2,3.4,8.7,1.8,13.6
		c-1.5,4.8-2.9,9.6-4.5,14.8c-1-2.8-1.8-5.3-2.7-7.8c-2.6-7.7-5.1-15.4-7.8-23c-0.5-1.4-0.2-1.8,1.2-1.7c0.6,0,1.2,0,1.8-0.1
		c0.7-0.1,1.2-0.6,1.1-1.3c-0.1-0.7-0.7-1.1-1.4-1c-1.4,0.1-2.8,0.2-4.2,0.3c-3.7,0.3-7.3,0-10.9-0.2c-0.9-0.1-1.7,0-1.8,1.1
		c-0.1,1.1,0.8,1.4,1.6,1.3c2.1-0.2,3,0.8,3.6,2.7c0.9,3.1,2.2,6.2,3.3,9.2c0.2,0.6,0.4,1.1,0.2,1.7c-2.1,6.2-4.2,12.5-6.3,18.8
		c-0.6-0.2-0.5-0.6-0.6-0.9c-3.4-10-6.7-20-10.1-30c-0.3-1-0.2-1.5,0.9-1.4c0.6,0,1.2-0.1,1.8-0.1c0.8-0.1,1.5-0.4,1.4-1.4
		c-0.1-1-0.8-1.1-1.6-1.1c-2.7,0.2-5.5,0.3-8.2,0.4c-0.4,0-0.8,0.1-1.1-0.2C234.5,8.2,257.1,5.3,270.1,17.9z"/>
	<path class="st0" d="M250.6,42.5c2,5.4,3.8,10.5,5.6,15.5c1.1,3.1,2.2,6.1,3.4,9.2c0.3,0.8,0.4,1.2-0.7,1.6
		c-5.4,1.6-10.8,1.7-16.2,0.4c-0.6-0.1-1.3-0.1-0.9-1.2C244.7,59.6,247.5,51.2,250.6,42.5z"/>
	<path class="st0" d="M222.8,27.9c4.7,13,9.4,25.9,14.2,38.9C221.7,60,216.2,40.8,222.8,27.9z"/>
	<path class="st0" d="M276.3,26c7.3,12,3.7,31.5-11.3,39.8c1-2.9,1.9-5.5,2.8-8.2c2.3-6.6,4.6-13.3,6.9-19.9
		C276.1,34,276.8,30.1,276.3,26z"/>
</g>
</svg>
