<?xml version="1.0" encoding="utf-8"?>
<!-- Generator: Adobe Illustrator 22.0.1, SVG Export Plug-In . SVG Version: 6.00 Build 0)  -->
<svg version="1.1" id="Calque_1" xmlns="http://www.w3.org/2000/svg" xmlns:xlink="http://www.w3.org/1999/xlink" x="0px" y="0px"
	 viewBox="0 0 500 500" style="enable-background:new 0 0 500 500;" xml:space="preserve">
<style type="text/css">
	.st0{fill:none;stroke:#E39581;stroke-width:16;stroke-miterlimit:10;}
</style>
<path class="st0" d="M15,459c0-137,0-274,0-411c0.7-1.3,1.8-2.6,2.1-4c3.2-14.4,17-25.7,31.6-25.7c135.1,0,270.2,0,405.4,0
	c18.2,0,32.8,14.7,32.8,33c0,134.1-0.1,268.2,0.1,402.4c0,15.7-7,26.1-20.8,32.8c-1.2,0.6-2.2,1.7-3.3,2.6c-140.7,0-281.3,0-422,0
	c-0.6-0.7-1.1-1.7-1.9-2c-12.1-4.4-19.6-12.8-22.2-25.5C16.7,460.6,15.7,459.8,15,459z M200,419.4c2.2,0.1,4.1,0.3,6,0.3
	c19.5,0,39-0.2,58.5,0.1c4.9,0.1,5.7-1.6,5.7-6c-0.1-37.3-0.2-74.6,0-112c0-6.9,0.9-14,2.3-20.8c3.6-17.8,15-28.1,32.1-30.1
	c24.2-2.7,37.9,7.6,41.5,31.6c1,6.9,1.6,13.9,1.6,20.8c0.2,36.5,0.1,73,0.1,109.5c0,2,0,3.9,0,6.3c23.6,0,46.8,0,70.1,0
	c0.1-1.5,0.3-2.4,0.3-3.4c0-43.2,0.3-86.3-0.3-129.5c-0.2-13.3-2.1-26.8-4.8-39.9c-4.5-21.8-15.4-39.6-36.5-49.5
	c-9.6-4.5-19.8-6.4-30.3-7.5c-18.3-1.8-35.8,0.4-52.1,9.5c-10.9,6.1-19.7,14.5-26.5,25.2c-0.5-7.9-0.8-15.6-0.4-23.4
	c0.2-4.9-1-6.7-6.2-6.6c-18.3,0.3-36.7,0.1-55,0.1c-1.9,0-3.9,0.2-6,0.3C200,269.7,200,344.3,200,419.4z M86.1,194.5
	c0,75.2,0,149.8,0,224.7c23.4,0,46.6,0,69.8,0c0-75.1,0-149.8,0-224.7C132.5,194.5,109.6,194.5,86.1,194.5z M121.1,82.8
	c-22.4,0-40.6,17.7-40.9,39.9c-0.3,22.8,17.9,41.4,40.4,41.5c22.8,0.1,41.1-18,41.2-40.7C161.9,101.2,143.6,82.8,121.1,82.8z"/>
<path class="st0" d="M200,419.4c0-75.1,0-149.7,0-224.8c2.1-0.1,4.1-0.3,6-0.3c18.3,0,36.7,0.2,55-0.1c5.3-0.1,6.5,1.7,6.2,6.6
	c-0.4,7.7-0.1,15.5,0.4,23.4c6.9-10.7,15.6-19.1,26.5-25.2c16.3-9.1,33.8-11.3,52.1-9.5c10.5,1.1,20.7,3,30.3,7.5
	c21.1,9.9,32,27.6,36.5,49.5c2.7,13.1,4.6,26.6,4.8,39.9c0.6,43.1,0.3,86.3,0.3,129.5c0,1-0.1,2-0.3,3.4c-23.3,0-46.5,0-70.1,0
	c0-2.3,0-4.3,0-6.3c0-36.5,0.1-73-0.1-109.5c0-6.9-0.6-13.9-1.6-20.8c-3.5-24-17.2-34.3-41.5-31.6c-17.1,1.9-28.5,12.3-32.1,30.1
	c-1.4,6.8-2.2,13.8-2.3,20.8c-0.2,37.3-0.2,74.6,0,112c0,4.4-0.8,6-5.7,6c-19.5-0.3-39-0.1-58.5-0.1
	C204.1,419.7,202.1,419.5,200,419.4z"/>
<path class="st0" d="M86.1,194.5c23.5,0,46.4,0,69.8,0c0,74.9,0,149.6,0,224.7c-23.2,0-46.4,0-69.8,0
	C86.1,344.3,86.1,269.7,86.1,194.5z"/>
<path class="st0" d="M121.1,82.8c22.4,0,40.8,18.4,40.7,40.7c-0.1,22.7-18.5,40.8-41.2,40.7c-22.5-0.1-40.7-18.7-40.4-41.5
	C80.5,100.5,98.7,82.8,121.1,82.8z"/>
</svg>
