<?xml version="1.0" encoding="utf-8"?>
<!-- Generator: Adobe Illustrator 22.0.1, SVG Export Plug-In . SVG Version: 6.00 Build 0)  -->
<svg version="1.1" id="Calque_4" xmlns="http://www.w3.org/2000/svg" xmlns:xlink="http://www.w3.org/1999/xlink" x="0px" y="0px"
	 viewBox="0 0 900 1000" style="enable-background:new 0 0 900 1000;" xml:space="preserve">
<style type="text/css">
	.st0{stroke:#FFFFFF;stroke-width:4;}
</style>
<title>Plan de travail 1</title>
<path d="M31.8,738.7l412.9,250c3.3,1.8,7.2,1.8,10.5,0l412.9-250c5.9-3.6,2.4-10.5-5.2-10.5H37.1C29.4,728.1,25.9,735.1,31.8,738.7z
	"/>
<path d="M127.2,334.9c0-40.4,39.3-73.1,87.9-73.1l0,0c48.6,0,87.9,32.7,87.9,73.1v27c0,4.5,3.7,8.2,8.2,8.2l0,0h11.2
	c4.5,0,8.2-3.7,8.2-8.2l0,0V317c0-52.1,50.8-94.4,113.5-94.4l0,0c62.7,0,113.5,42.3,113.5,94.4v44.8c0,4.5,3.7,8.2,8.2,8.2l0,0h11.2
	c4.5,0,8.2-3.7,8.2-8.2l0,0v-27c0-40.4,39.3-73.1,87.9-73.1l0,0c48.6,0,87.9,32.7,87.9,73.1v27c0,4.5,3.7,8.2,8.2,8.2l0,0h88
	c4.5,0,8.2-3.7,8.2-8.2c0-2.4-1.1-4.7-3-6.3l-413-343.6c-3-2.5-7.4-2.5-10.5,0L40.3,343.5c-6.3,5.3-7.2,14.8-1.9,21.1
	c2.8,3.4,7,5.4,11.5,5.4H119c4.5,0,8.2-3.7,8.2-8.2l0,0V334.9z"/>
<path class="st0" d="M103.1,450.2c0,5.8-1.1,11.5-3.3,16.8c-2.2,5.2-5.3,9.8-9.2,13.8c-3.9,4-8.6,7.2-13.7,9.4
	c-5.3,2.3-11,3.6-16.7,3.6v16.5h-24V406.4h23.9c5.8,0.1,11.5,1.3,16.7,3.7c5.1,2.3,9.7,5.5,13.7,9.5c3.9,4,7.1,8.7,9.2,13.8
	C102,438.7,103.1,444.4,103.1,450.2z M60.1,469.9c2.6-0.1,5.1-0.7,7.4-1.8c2.2-1,4.3-2.5,6-4.3c1.7-1.8,3.1-3.9,4-6.2
	c1.9-4.8,1.9-10.2-0.1-15c-0.9-2.3-2.3-4.4-4-6.2c-1.7-1.8-3.8-3.2-6-4.3c-2.3-1.1-4.9-1.7-7.4-1.8L60.1,469.9z"/>
<path class="st0" d="M227.1,510.3c-10.3,0.1-20.3-4-27.6-11.2c-3.7-3.7-6.7-8-8.7-12.8c-2-4.8-3.1-9.9-3.2-15.2v-65h23.9v64.9
	c0,4.1,1.7,8.1,4.7,10.9c3,2.9,6.9,4.5,11.1,4.4c2,0,4-0.4,5.9-1.3c1.8-0.8,3.5-2,5-3.4c1.4-1.4,2.5-3.1,3.3-5
	c0.8-1.9,1.2-4,1.1-6.1v-64.5h23.9v64.3c0.1,5.3-0.9,10.5-2.9,15.3c-2,4.7-4.8,9-8.4,12.6c-3.6,3.6-7.8,6.5-12.5,8.6
	c-4.8,2.1-9.9,3.2-15.1,3.2H227.1z"/>
<path class="st0" d="M382.6,483.5c-1.2,0.2-2.5,0.3-3.7,0.4l-3.8,0.3v26.1h-23.9V406.8h23.9c5.7,0.1,11.4,1.2,16.7,3.3
	c5,2,9.6,4.8,13.7,8.3c3.9,3.4,7,7.5,9.2,12.2c2.2,4.6,3.4,9.7,3.3,14.8c0,5.4-1.2,10.7-3.5,15.5c-2.4,4.8-5.8,9-9.9,12.4l23,37
	h-28.2L382.6,483.5z M375.1,460.1c2.5-0.1,5-0.5,7.4-1.4c2.2-0.7,4.2-1.8,6.1-3.2c1.7-1.2,3.1-2.8,4.1-4.6c1-1.7,1.5-3.6,1.5-5.6
	c0-1.9-0.5-3.8-1.5-5.5c-1.1-1.8-2.4-3.3-4.1-4.5c-1.9-1.4-3.9-2.5-6.1-3.2c-2.4-0.8-4.9-1.3-7.4-1.4V460.1z"/>
<path class="st0" d="M575.2,450.2c0,5.8-1.1,11.5-3.3,16.8c-2.2,5.2-5.3,9.8-9.2,13.8c-3.9,4-8.6,7.2-13.7,9.4
	c-5.3,2.3-11,3.6-16.7,3.6v16.5h-24V406.4h24c5.8,0.1,11.5,1.3,16.7,3.7c5.1,2.3,9.7,5.5,13.7,9.5c3.9,4,7.1,8.7,9.2,13.8
	C574.1,438.7,575.2,444.4,575.2,450.2z M532.2,469.9c2.5-0.1,5.1-0.7,7.4-1.8c2.2-1,4.3-2.5,6-4.3c1.7-1.8,3.1-3.9,4-6.2
	c2-4.8,2-10.2,0-15.1c-0.9-2.3-2.3-4.4-4-6.2c-1.7-1.8-3.8-3.2-6-4.3c-2.3-1.1-4.9-1.7-7.4-1.8L532.2,469.9z"/>
<path class="st0" d="M721.6,510.3h-61.9V406.3h23.9v80.2h38L721.6,510.3z"/>
<path class="st0" d="M866.8,430.4H824v15.7h34.7V470H824v16.4h42.8v23.9h-66.7V406.6l66.7-0.1L866.8,430.4z"/>
<path class="st0" d="M67.7,653.5c-1.2,0.2-2.5,0.3-3.7,0.4l-3.8,0.3v26.2h-24V576.8h23.9c5.7,0.1,11.4,1.2,16.7,3.3
	c5,2,9.6,4.8,13.7,8.3c3.9,3.4,7,7.5,9.2,12.2c2.2,4.6,3.4,9.7,3.3,14.8c0.1,5.4-1.2,10.7-3.5,15.5c-2.4,4.8-5.8,9-9.9,12.4l23,37.1
	H84.4L67.7,653.5z M60.2,630.1c2.5-0.1,5-0.5,7.4-1.4c2.2-0.7,4.2-1.8,6.1-3.2c1.7-1.2,3.1-2.8,4.1-4.6c1-1.7,1.5-3.6,1.5-5.6
	c0-1.9-0.5-3.8-1.5-5.5c-1.1-1.8-2.4-3.3-4.1-4.5c-1.8-1.4-3.9-2.5-6.1-3.2c-2.4-0.8-4.9-1.3-7.4-1.4V630.1z"/>
<path class="st0" d="M304.7,600.4h-42.8v15.7h34.7V640h-34.7v16.4h42.8v23.9H238V576.5l66.7-0.1L304.7,600.4z"/>
<path class="st0" d="M457.5,680.4h-24V576.3h23.9L457.5,680.4z"/>
<path class="st0" d="M648.1,576.4h24v104h-25.9l-34-60.6v60.6h-23.9V576.7h26l33.8,60.5L648.1,576.4z"/>
<path class="st0" d="M866.8,600.4H824v15.7h34.7V640H824v16.4h42.8v23.9h-66.7V576.5l66.7-0.1L866.8,600.4z"/>
</svg>
