<?xml version="1.0" encoding="utf-8"?>
<!-- Generator: Adobe Illustrator 22.0.1, SVG Export Plug-In . SVG Version: 6.00 Build 0)  -->
<svg version="1.1" id="Calque_1" xmlns="http://www.w3.org/2000/svg" xmlns:xlink="http://www.w3.org/1999/xlink" x="0px" y="0px"
	 viewBox="0 0 1000 1000" style="enable-background:new 0 0 1000 1000;" xml:space="preserve">
<style type="text/css">
	.st0{fill:#224966;}
</style>
<title>ui-add</title>
<path class="st0" d="M942.8,357.2h-300V57.1c0-31.4-25.7-57.1-57.1-57.1H414.3c-31.4,0-57.2,25.7-57.2,57.1v300.1h-300
	C25.7,357.2,0,382.9,0,414.3v171.4c0,31.4,25.7,57.1,57.1,57.1h300v300.1c0,31.3,25.8,57.1,57.2,57.1h171.4
	c31.4,0,57.1-25.8,57.1-57.1V642.8h300c31.5,0,57.2-25.7,57.2-57.1V414.3C1000,382.9,974.3,357.2,942.8,357.2L942.8,357.2z"/>
</svg>
