<?xml version="1.0" encoding="utf-8"?>
<!-- Generator: Adobe Illustrator 22.0.1, SVG Export Plug-In . SVG Version: 6.00 Build 0)  -->
<svg version="1.1" id="Calque_1" xmlns="http://www.w3.org/2000/svg" xmlns:xlink="http://www.w3.org/1999/xlink" x="0px" y="0px"
	 viewBox="0 0 1000 1000" style="enable-background:new 0 0 1000 1000;" xml:space="preserve">
<style type="text/css">
	.st0{fill:url(#SVGID_1_);}
</style>
<linearGradient id="SVGID_1_" gradientUnits="userSpaceOnUse" x1="1000" y1="1000" x2="-3.367154e-08" y2="3.367268e-08">
	<stop  offset="0" style="stop-color:#667EEA"/>
	<stop  offset="1" style="stop-color:#764BA2"/>
</linearGradient>
<rect class="st0" width="1000" height="1000"/>
<g>
	<path d="M872.4,608.7v-82.9l0.5,1.2c15.4-30.1,22.6-61.7,0.7-62.4c-0.5,0-1,0-1.3,0V180.2l30.3,11.1c33.1,17.9,47.9,31.7,47.3,41.5
		c-1.8,10.8-12.6,19.4-28,27.5l-40.1,14.9c5.8,12,9.7,23.6,10,34.8l0.7,106.8c62.7,37.8,39.1,108-19,193.8L872.4,608.7L872.4,608.7z
		 M872.4,180.2v284.5c-20.3,0.6-19.8,27.7,0,61.2v82.9c-56.3-73.1-83.6-155.3-18.7-192.1l-0.3-90.3c0.3-22-9.3-34.9-21.9-31.7
		l-67,20.9L764.3,451l-10,9.6l6.7,39.7c95.8,54.5,66.1,207.6-29,246c-19.5,66.8-65.3,126.5-118,163.8v-62
		c38.3-34,72-81.1,77.6-133.9c0.7-12.2,10.8-15.2,25.7-13.4c62.2-38.8,88.5-115.4,23.7-157.5l-19.5,0.6l-5.8-69.2L614,499.5v-51
		l110.8-29.9l0.7-85L613.9,370v-51l139.6-48.4l-139.6-37v-49l217.5,56.7l36-10.4l-253.5-93V86.3L872.4,180.2L872.4,180.2z
		 M614,651.2c20.9,0,37.5-19.7,37.5-43.8c0-23.8-16.7-43.6-37.5-43.6V651.2z M394.8,563.6c20.9,0,37.5,19.7,37.5,43.6
		c0,24.2-16.7,43.8-37.5,43.8V563.6z M614,86.1v51.6L502.4,96.8l-107.7,38.8V85.2l84.6-31c17.3-6.6,35.3-5.1,54.3,3L614,86.1
		L614,86.1z M614,184.7v49l-113.6-29.9c-21.3-5.3-11.3-52.7,16.7-44.5L614,184.7L614,184.7z M614,318.8v51l-107.2,34.6l-112-35.2
		v-50.1l86.1,30.1c14.1,5.3,30.6,5.1,46.7-0.4L614,318.8L614,318.8z M614,448.3v51l-109.5,26.9l-109.7-27.5v-52.2l112,30.5
		L614,448.3L614,448.3z M614,563.6V651c-20.9,0-37.7-19.7-37.7-43.8C576.2,583.4,593.2,563.6,614,563.6L614,563.6z M614,848v62
		c-35,24.4-72.7,39.4-108.4,40c-36-1.8-75.1-17-110.8-42.9v-62c39.1,36.6,84.6,57.2,112.6,59C531.2,904.1,575,882.8,614,848L614,848
		z M394.8,651.2c-20.9,0-37.5-19.7-37.5-43.8c0-23.8,16.7-43.6,37.5-43.6V651.2z M394.8,85.2L89.9,198
		c-18.7,6.8-39.9,22.7-39.9,31.6s12.3,20.6,24.1,25l175.7,66.9v134.4l10.8,5.1l-6.7,40.3c-93.3,36.4-75.3,213.2,30.9,241.4
		C302.6,814,345.2,871,394.9,907v-62c-31.9-29.9-59.8-70.6-70.7-121.4c-0.5-15.7-7.2-25.6-23.7-23.6c-80.5-34-79.5-128-27-155.7
		l19.3-0.4l7-69.5l95.1,24.2v-52.2l-104.6-28.7v-81.7l104.6,33.1v-50.1l-259-89.7l258.9-93.7V85.2L394.8,85.2z"/>
</g>
</svg>
