<?xml version="1.0" encoding="utf-8"?>
<!-- Generator: Adobe Illustrator 22.0.1, SVG Export Plug-In . SVG Version: 6.00 Build 0)  -->
<svg version="1.1" id="Calque_1" xmlns="http://www.w3.org/2000/svg" xmlns:xlink="http://www.w3.org/1999/xlink" x="0px" y="0px"
	 viewBox="0 0 696 778.8" style="enable-background:new 0 0 696 778.8;" xml:space="preserve">
<style type="text/css">
	.st0{fill:#E39581;}
</style>
<title>tel</title>
<g>
	<path class="st0" d="M491.2,30c8.6,0,16.9,1.2,25.4,3.7c11.5,3.4,43,19.7,78.8,43.3c38.8,25.5,61.9,45.9,68,55.1l-150.2,103
		c-8.6-6.9-26.5-20.9-65.7-50.6c-12.7-9.6-27.8-14.7-43.7-14.7c-21.6,0-41.9,9.5-55.7,26.2c-42.5,51.1-152,204.9-197.1,268.7l0,0
		l0,0c-17.7,25-13,59.9,10.6,79.5c10.2,8.5,33.1,28.6,64.7,56.9l-67.6,147.5c-3.8-2-29.6-18.2-116.9-127.4
		c-7.1-8.9-10.9-19.3-11.6-31.8s1.6-26.5,7-41.7c12.6-35.6,33-81.3,56.1-125.3c29.8-56.6,63.9-110.7,98.8-156.4
		c65.8-86.2,141.5-148.2,192.7-187.4C416.2,54.6,453.5,30,491.2,30L491.2,30 M491.2,0c-44.8,0-86,25.3-124.6,54.8
		c-63.7,48.7-135.6,110.8-198.4,193C87.4,353.6,31.3,473.9,8.8,537.7C-3.6,572.9-5,610.8,18.3,639.9
		c40.2,50.3,101.7,123.6,127.8,136c0.1,0,0.2,0.1,0.3,0.1c4,1.8,8.2,2.7,12.3,2.7c11.3,0,22-6.4,27-17.4l70.1-152.9
		c4.1-8.9,1.9-19.4-5.4-25.9c-18.9-17-54.7-49-69.9-61.5c-11.7-9.7-14-26.7-5.2-39.1C216.6,423.6,328.9,265.7,371,215
		c8.4-10.1,20.4-15.3,32.7-15.3c8.9,0,17.9,2.8,25.6,8.6c27.8,21.1,64.6,49.1,71.7,55.6c3.2,2.9,7.3,4.4,11.4,4.4c3.3,0,6.7-1,9.6-3
		l166.6-114.1c6-4.1,8.7-11.5,6.8-18.5c-1.6-5.8-3.7-12.2-6.2-16.1C668.1,83.1,558.8,15,525.1,5C513.6,1.6,502.3,0,491.2,0L491.2,0z
		"/>
</g>
</svg>
